<?xml version="1.0" encoding="utf-8"?>
<!-- Generator: Adobe Illustrator 22.0.0, SVG Export Plug-In . SVG Version: 6.00 Build 0)  -->
<svg version="1.1" id="Layer_1" xmlns="http://www.w3.org/2000/svg" xmlns:xlink="http://www.w3.org/1999/xlink" x="0px" y="0px"
	 viewBox="0 0 245 37.8" style="enable-background:new 0 0 245 37.8;" xml:space="preserve">
<style type="text/css">
	.st0{clip-path:url(#SVGID_2_);fill:#8A0021;}
	.st1{fill:#8A0021;}
	.st2{clip-path:url(#SVGID_4_);fill:#8A0021;}
	.st3{clip-path:url(#SVGID_6_);fill:#8A0021;}
</style>
<g>
	<defs>
		<rect id="SVGID_1_" x="1.6" y="0.9" width="234" height="35.5"/>
	</defs>
	<clipPath id="SVGID_2_">
		<use xlink:href="#SVGID_1_"  style="overflow:visible;"/>
	</clipPath>
	<path class="st0" d="M11.1,8.9C11,9,11.3,9.1,11.3,9.1c0,0.3,0,0.7,0.1,0.9c0.1,0.1,0.3,0.2,0.3,0.1c0-0.1,0.2-0.3,0.3-0.4
		c0.1-0.1,0-0.1-0.1-0.1c-0.1,0.1-0.2,0.1-0.3,0c0-0.1-0.1-0.5,0-0.6c0,0,0.2,0,0.3,0c0,0,0-0.1,0-0.1c-0.1,0-0.3,0-0.3,0
		c0-0.1,0-0.4,0.1-0.5c0-0.1,0-0.1-0.1,0C11.5,8.4,11.3,8.8,11.1,8.9 M11.8,7.6c0.1,0,0.4,0.1,0.6,0.1c0.3,0,0.5-0.5,0.4-0.8
		c-0.1-0.3-0.5-0.3-0.7-0.4c-0.2-0.1-0.3-0.2-0.1-0.4c0.3-0.2,0.7,0.1,0.7,0.2c0.1,0.1,0.1,0.1,0.1,0c0-0.3,0-0.1,0-0.4
		c0-0.1-0.1-0.1-0.1,0C12.6,6,12.5,6,12.4,6c-0.1,0-0.3,0-0.5,0.1c-0.1,0.1-0.4,0.3-0.3,0.6c0.1,0.2,0.7,0.3,0.8,0.4
		c0.1,0.1,0.2,0.3,0,0.5c-0.2,0.1-0.7,0-0.7-0.1c-0.1-0.1-0.1-0.2-0.2-0.3c0-0.1-0.1-0.1-0.1,0s0,0.5,0,0.6c0,0.1,0.1,0.1,0.1,0
		C11.7,7.7,11.7,7.6,11.8,7.6 M12.4,8c-0.1,0.1-0.1,0.2-0.3,0.3c0.1,0.1,0.2,0.2,0.3,0.2c0.1-0.1,0.2-0.2,0.3-0.3
		C12.6,8.2,12.5,8.2,12.4,8 M11,7.9c0.1-0.1,0.2-0.2,0.2-0.2c0.1-0.1,0-0.1-0.1-0.1c-0.1,0.1-0.2-0.1-0.2-0.1c0-0.1-0.1-0.7-0.1-0.7
		c0,0,0.4-0.1,0.5-0.1c0,0,0-0.1,0-0.1c-0.1,0-0.4,0-0.4,0c0-0.1-0.1-0.3,0-0.5C11,6,11,5.9,10.9,6c0,0.1-0.3,0.5-0.5,0.6
		c-0.1,0.1-0.1,0.1,0,0.1c0.1,0,0.1,0.1,0.1,0.1c0,0.3,0,0.8,0.1,1C10.7,7.8,10.9,7.9,11,7.9 M9.8,8.6C9.7,8.7,9.6,8.8,9.4,8.9
		C9.5,9,9.6,9.1,9.6,9.2c0,0.1,0,0.8,0,1c0.1,0,0.1,0,0.3,0c0-0.1,0-1,0-1.1C10,9,10,9,10.1,9c0.1,0.1,0.2,0.1,0.2,0.2
		c0,0.1,0,0.5,0,0.7c0,0.2,0,0.3,0.1,0.5c0.1-0.1,0.4-0.3,0.4-0.3c0.1-0.1,0-0.1-0.1-0.1c-0.1,0-0.1,0-0.1,0c0-0.1,0-0.6,0-0.9
		c0-0.3-0.2-0.4-0.2-0.4c-0.1,0.1-0.3,0.2-0.4,0.3C9.9,8.9,9.9,8.7,9.8,8.6 M8.6,8.8c0.1,0.1,0.2,0.4,0.3,0.4
		C8.8,9.3,8.5,9.5,8.4,9.6C8.2,9.4,8.2,9.1,8.6,8.8 M8.1,9.4c-0.1,0.6,0.4,0.9,0.7,1C8.9,10.3,9,10,9.1,9.9c0.1-0.1,0-0.1-0.1-0.1
		c-0.1,0.1-0.5,0-0.6-0.2C8.6,9.6,9.1,9.2,9.3,9C9.1,8.9,8.9,8.6,8.9,8.5C8.7,8.6,8.2,8.8,8.1,9.4 M7.9,6.7C7.7,7,7.6,7.5,8,7.8
		C8.1,7.9,8.3,8,8.6,8c0.1-0.1,0.1-0.2,0.2-0.3c-0.2,0-0.4,0-0.6-0.1C7.9,7.3,8,6.8,8.1,6.7c0.2-0.3,0.5,0.1,0.5,0.2
		c0.1-0.1,0.2-0.2,0.3-0.3C8.8,6.4,8.7,6.3,8.6,6.2C8.4,6.3,8.1,6.5,7.9,6.7 M9.6,5.9c0,0-0.1-0.1-0.1-0.2c0,0,0-0.5,0-0.6
		c0-0.1-0.1,0-0.1,0c0,0.1,0,0.2-0.1,0.3C9.1,5.8,8.7,6,8.4,5.6C8.3,5.4,8.3,5.2,8.3,5.1c0-0.2,0.1-0.4,0.1-0.5
		c0.4-0.5,0.8-0.1,0.9,0.1c0,0.1,0.1,0.3,0.1,0.4c0,0.1,0.1,0,0.1,0c0-0.1,0-0.8,0-0.8c0,0-0.1-0.1-0.1,0c0,0.1-0.1,0.1-0.2,0.1
		c-0.2-0.1-0.6-0.1-0.8,0C8.2,4.4,7.9,4.7,7.9,5.1c0,0.6,0.2,0.6,0.5,0.8c0.2,0.1,0.6,0,0.9,0c0.1,0,0.1,0,0.2,0.1
		C9.6,6.1,9.6,6,9.6,5.9 M9.7,7.6c0,0,0,0.1,0,0.1c0,0-0.1,0-0.1,0.1C9.5,7.7,9.1,7.5,9.4,7.3c0.2,0.1,0.2,0,0.4-0.1
		C9.7,7.4,9.7,7.5,9.7,7.6 M9.7,7.2c-0.2,0.1-0.3,0.1-0.4,0c-0.1-0.1-0.1-0.2,0-0.3c0.1-0.1,0.2-0.2,0.2-0.2c0.1,0,0.2,0.2,0.2,0.3
		C9.7,7,9.7,7.1,9.7,7.2 M9.7,6.4c-0.2,0-0.5,0.2-0.6,0.4c0,0.1,0,0.4,0.1,0.4c0,0,0,0,0.1,0.1C9.1,7.4,9,7.5,9,7.7
		C9,7.8,9.2,8,9.3,8.1c0.1-0.1,0.2-0.2,0.4-0.3c0,0.1,0,0.2,0.1,0.3c0.1-0.1,0.3-0.3,0.4-0.3c0.1-0.1,0-0.1-0.1-0.1
		c0,0-0.1,0-0.2-0.1c0-0.1,0-0.9,0-0.9C10,6.6,9.8,6.4,9.7,6.4 M11.1,4.4C11.2,4.4,11.1,4.3,11.1,4.4c-0.1-0.1-0.3-0.3-0.3-0.3
		c-0.1,0.1-0.2,0.2-0.3,0.2c-0.1-0.1-0.2-0.1-0.3-0.2c-0.1,0.1-0.3,0.2-0.4,0.3c0.2,0.1,0.3,0.1,0.3,0.2c0,0.1,0,0.9,0,1
		c0.1,0,0.2,0,0.3,0c0-0.1,0-1,0-1.1c0.1,0,0.1-0.1,0.1-0.1c0.1,0,0.2,0.2,0.2,0.2C10.9,4.6,11.1,4.5,11.1,4.4 M11.7,4.8
		c-0.1-0.4-0.1-0.5,0.2-0.7c0.1,0.1,0.2,0.2,0.3,0.3C11.9,4.5,11.7,4.7,11.7,4.8 M12.4,5.2C12,5.3,11.7,5,11.7,4.9
		c0.2-0.2,0.5-0.5,0.7-0.6c-0.1-0.1-0.2-0.3-0.4-0.3c-0.2,0-0.6,0.2-0.7,0.8c-0.1,0.6,0.4,0.8,0.9,0.9c0.1,0,0.3-0.2,0.4-0.2
		C12.7,5.3,12.6,5.2,12.4,5.2 M13.7,4.6c0,0-0.1,0.1-0.2,0.2c0,0-0.1,0-0.1,0c-0.2,0-0.2-0.1-0.3-0.2c-0.1-0.1,0.1-0.2,0.2-0.2
		C13.3,4.3,13.6,4.4,13.7,4.6 M13.4,5c0.1,0,0.2,0.1,0.3,0.2c0.2,0.1,0.1,0.3-0.1,0.4c-0.2,0.1-0.5-0.1-0.6-0.2
		C13.1,5.2,13.2,5.1,13.4,5 M14.1,4.4C14,4.3,13.9,4.1,13.6,4c-0.3,0-0.6,0.3-0.8,0.4c-0.1,0.2,0,0.4,0.2,0.6
		c-0.1,0.1-0.3,0.3-0.5,0.4c0.1,0.1,0.4,0.2,0.6,0.2c0.3,0,0.6-0.2,0.7-0.3c0.3-0.2,0.2-0.5-0.1-0.7c0,0-0.1,0-0.1,0
		C13.9,4.5,14.1,4.4,14.1,4.4 M14.5,6.1l-0.2-0.2l-0.2,0.2l0,0.2l0.1,0.1h0.1l0.1-0.1V6.1z M14.4,4.8c-0.1,0-0.2,0.2,0.2,0.2
		C14.7,5,14.8,4.8,14.4,4.8 M14.4,5.1c-0.1,0-0.2,0.1,0.2,0.2C14.7,5.3,14.8,5.1,14.4,5.1 M14.7,8l0.2-0.2c-0.2,0-0.2,0-0.3-0.1
		l0-0.8l-0.2-0.2l-0.1,0L14,7c-0.1,0.1,0,0.1,0.1,0l0.2,0.1l0,0.8c0,0.1,0.1,0.1,0.2,0.2L14.7,8z M13.6,9.4c0.1,0.1,0.2,0.1,0.4,0.1
		c0,0.1,0,0.2,0,0.2c0,0,0,0.1,0,0.1c-0.1,0-0.2,0-0.3,0.1C13.6,9.8,13.3,9.6,13.6,9.4 M14,9.4c-0.1,0-0.3,0-0.4-0.2
		c0,0-0.1-0.2,0-0.3c0.1-0.1,0.1-0.1,0.1-0.1c0,0,0.3,0.2,0.3,0.3C14,9.2,14,9.3,14,9.4 M13.5,9.3c-0.1,0.1-0.2,0.3-0.2,0.5
		c0,0.2,0.1,0.4,0.2,0.4c0.2-0.1,0.4-0.3,0.6-0.3c0.1,0.1,0.2,0.2,0.3,0.3c0.1-0.1,0.3-0.2,0.3-0.3c0.1-0.1,0-0.1-0.1-0.1
		c0,0.1-0.2,0-0.2,0c0-0.1-0.1-0.9,0-0.9c-0.1-0.1-0.3-0.4-0.4-0.4c-0.2,0-0.5,0.3-0.5,0.4C13.4,9,13.4,9.3,13.5,9.3
		C13.5,9.3,13.5,9.3,13.5,9.3 M13,7.5c0.1,0.3,0.4,0.4,0.6,0.5c0.1-0.1,0.2-0.3,0.2-0.4c0.1-0.1,0-0.2-0.1-0.1
		c-0.1,0.1-0.3,0-0.4-0.1c-0.1-0.1-0.2-0.5-0.1-0.6c0.1-0.1,0.3-0.1,0.5-0.1c0.1,0,0.2-0.1,0.2-0.2c-0.1,0-0.2-0.1-0.3-0.2
		c-0.1,0.1-0.3,0.2-0.4,0.3C13.1,6.8,12.8,7.1,13,7.5 M12.9,9.9L13,9.8c-0.2,0-0.1,0-0.2-0.1l0-0.7l-0.2-0.3l-0.1,0L12.2,9
		c-0.1,0.1,0,0.1,0.1,0l0.2,0.1l0,0.8c0,0.1,0.1,0.1,0.2,0.2L12.9,9.9z M15.9,14.1c0,0,0.1-0.2,0.1-0.3c0-0.2-0.1-0.3-0.1-0.3
		c0.1,0,0.4,0.2,0.5,0.3L15.9,14.1z M16.8,13.8L16.8,13.8c-0.3-0.1-0.6-0.3-0.9-0.4c-0.4-0.2-0.8,0.2-0.8,0.2c0,0.1,0.1,0.2,0.4,0
		c-0.3,0.3,0,0.5,0,0.5c-0.1,0-0.3-0.1-0.4-0.1c0,0.1,0.1,0.1,0.2,0.2C15.9,14.4,16.3,13.9,16.8,13.8 M20.4,8.8
		c-0.1,0.1-0.2,0.2-0.4,0.3c0.1,0,0.2,0,0.3,0.1c0.1,0.1,0,0.6,0,0.7c0,0.2,0.1,0.2,0.2,0.3c0.1,0,0.5-0.2,0.6-0.3
		c0,0.1,0.2,0.3,0.3,0.3c0.1-0.1,0.1-0.1,0.2-0.2c-0.1-0.1-0.1-0.1-0.1-0.2c0-0.1,0-0.6,0-0.8c-0.1-0.1-0.2-0.3-0.3-0.4
		c-0.1,0.1-0.2,0.2-0.4,0.4c0.1,0,0.3,0,0.3,0.1c0,0.1,0,0.4,0,0.6c0,0.2-0.6,0.1-0.6,0c0-0.1,0-0.6,0-0.7C20.6,9,20.6,8.9,20.4,8.8
		 M20.7,7.2c0-0.2,0.2-0.3,0.2-0.3c0.1,0.1,0.2,0.2,0.3,0.2c0.1,0,0.3-0.1,0.3-0.1c-0.1-0.1-0.4-0.4-0.4-0.4
		c-0.1,0.1-0.7,0.4-0.7,0.7c-0.1,0.5,0.1,0.6,0.3,0.9c0.1,0.2,0.3,0.2,0.4,0.1c0.1-0.1,0.5-0.4,0.5-0.5c0,0,0-0.1-0.1,0
		c0,0,0,0.1-0.1,0.1c-0.1,0-0.3,0.1-0.5,0C20.9,7.7,20.7,7.5,20.7,7.2 M19.1,7.2c0,0.3-0.2,0.7-0.4,0.8c0.3-0.1,0.4-0.3,0.6-0.5
		c0.1,0.1,0.3,0.3,0.4,0.4c0.1-0.1,0.4-0.4,0.4-0.4C20,7.4,19.6,7.2,19.5,7c-0.1-0.2-0.1-0.2,0-0.4c0.1,0.1,0.5,0.3,0.7-0.1
		c-0.2-0.1-0.4-0.2-0.5-0.3c-0.1,0-0.3,0.3-0.4,0.3c0-0.1-0.2-0.2-0.4-0.3c0,0.1-0.4,0.3-0.6,0.4c0,0,0,0.1,0,0.1
		c0.1,0,0.2-0.1,0.3-0.2C19,6.7,19.1,6.9,19.1,7.2 M19.1,8.8C18.9,8.8,19.3,9,19.2,9c0,0.4-0.1,0.9,0,1.1c0.1,0.1,0.2,0.2,0.4,0.1
		c0.1,0,0.3-0.3,0.3-0.3c0.1-0.1,0-0.1-0.1-0.1c-0.1,0.1-0.3,0-0.3,0c0-0.1,0-0.8,0-0.9c0,0,0.2,0,0.3,0c0,0,0-0.1,0-0.1
		c-0.1,0-0.3,0-0.3,0c0-0.1,0-0.3,0.1-0.4c0-0.1,0-0.1-0.1,0C19.5,8.4,19.3,8.7,19.1,8.8 M17.8,9c0.1-0.1,0.1-0.1,0.2-0.1
		c0.1,0,0.3,0.1,0.3,0.2c0,0.1,0,0.2,0,0.3c-0.2,0-0.3,0-0.4-0.1C17.8,9.3,17.8,9.1,17.8,9 M17.9,9.5c0.1,0.1,0.2,0,0.4,0
		c0,0.1,0,0.2,0,0.3C18.2,9.9,18.1,9.9,18,10C17.9,9.9,17.7,9.8,17.9,9.5 M17.8,9.4c-0.1,0.1-0.3,0.3-0.3,0.5c0,0.2,0.1,0.4,0.2,0.5
		c0.2-0.1,0.3-0.3,0.6-0.4c0,0.1,0.1,0.2,0.2,0.2c0.1-0.1,0.3-0.4,0.4-0.4c0.1-0.1,0-0.1-0.1-0.1c-0.1,0.1-0.1,0-0.3-0.1
		c0-0.1,0-0.7,0-0.7c-0.1-0.1-0.2-0.3-0.4-0.3c-0.2,0-0.5,0.4-0.5,0.5C17.6,9.1,17.7,9.4,17.8,9.4C17.7,9.4,17.7,9.4,17.8,9.4
		 M16.5,8.2c0,0.2,0.1,1.6,0.1,1.8c0,0.1,0.1,0.2,0.3,0.3c0.1-0.1,0.2-0.3,0.3-0.4c0.1-0.1,0-0.1,0-0.1C17.1,10,17,9.9,17,9.8
		c0-0.1,0-1.4,0-1.6C16.9,8.2,16.6,8.2,16.5,8.2 M16.4,7.2c0,0.6,0.2,0.7,0.5,0.8c0.3,0.1,0.7,0.1,1,0c0.1,0,0.2,0,0.2,0.1
		c0,0.1,0.1,0.1,0.1,0s0-0.6,0-0.6c0-0.1-0.1-0.1-0.1,0c0,0.1,0,0.1-0.1,0.2C17.9,8,17.3,8,17,7.6c-0.1-0.1-0.2-0.3-0.1-0.4
		c0.1,0,0.5,0,0.7,0.1c0.1,0,0.5,0,0.5,0.1c0,0,0.1,0.1,0.1,0c0-0.1,0-0.3,0-0.4c0-0.1-0.1,0-0.1,0c0,0-0.4,0.1-0.5,0.1
		c-0.1,0-0.6,0.1-0.7,0c-0.1,0-0.1-0.3,0-0.4c0.3-0.4,0.9-0.4,1.1,0c0.1,0.1,0.1,0.1,0.1,0.2c0,0.1,0.1,0.1,0.1,0c0-0.1,0-0.7,0-0.7
		c0,0-0.1-0.1-0.1,0c0,0-0.1,0.1-0.2,0c-0.2-0.1-0.7,0-1,0.2C16.8,6.5,16.4,6.8,16.4,7.2 M18.8,3.7c-0.1,0-0.5,0-0.6,0
		c-0.1,0-0.1,0.1,0,0.1c0.1,0,0.1,0,0.2,0.2c0.1,0.2-0.2,0.8-0.3,1c-0.1-0.1-0.4-0.7-0.4-0.8c0-0.1,0.1-0.1,0.2-0.1
		c0.1,0,0.1-0.1,0-0.1c-0.2,0-1-0.1-1.2-0.1c-0.1,0-0.1,0.1,0,0.1c0.1,0,0.3,0,0.4,0.2c0.2,0.2,0.7,1.3,0.8,1.8
		c0.1-0.1,0.6-1.5,0.6-1.7c0-0.1,0.1-0.3,0.3-0.3C18.9,3.7,18.9,3.7,18.8,3.7 M19.5,3.9l0.1-0.1V3.6l-0.2-0.2l-0.2,0.2l0,0.2
		l0.1,0.1H19.5z M19.7,5.8L20,5.5c-0.2,0-0.3-0.1-0.4-0.2l0-0.8l-0.3-0.3l-0.1,0l-0.4,0.4c0,0.1,0.1,0.1,0.1,0l0.3,0.2l0,0.8
		c0,0.1,0.1,0.2,0.2,0.3H19.7z M21.4,4.4c-0.1,0-0.6,0-0.6,0c0-0.1,0-0.3,0-0.5c0-0.1,0-0.1-0.1,0c0,0.1-0.3,0.5-0.6,0.6
		c-0.1,0.1,0.2,0.2,0.2,0.2c0,0.4,0.1,0.9,0.1,1.1c0,0.1,0.2,0.3,0.3,0.3C20.8,6,21,5.7,21,5.6c0.1-0.1,0-0.2-0.1-0.1
		c-0.1,0.1-0.1,0-0.2-0.1c0-0.1-0.1-0.9-0.1-0.9c0,0,0.6-0.1,0.7-0.1C21.5,4.5,21.5,4.4,21.4,4.4 M22.4,5.9c-0.1,0-0.2,0-0.3,0.1
		c-0.1-0.1-0.3-0.4-0.2-0.7c0,0-0.1,0-0.1,0c0.2,0.1,0.3,0.2,0.5,0.2c0,0.1,0,0.2,0,0.3C22.4,5.8,22.4,5.8,22.4,5.9 M22.4,5.4
		c-0.2-0.1-0.5-0.2-0.6-0.3c0,0,0,0,0-0.1C21.9,4.9,22,4.8,22,4.8c0.1,0,0.4,0.2,0.4,0.3C22.4,5.1,22.4,5.2,22.4,5.4 M22.6,6.2
		L23,5.9c0,0-0.2-0.1-0.2-0.2c0-0.1,0-0.8,0-0.9c-0.3-0.2-0.4-0.3-0.6-0.2c-0.2,0-0.4,0.3-0.5,0.4c0,0.1,0,0.2,0,0.2
		c0,0,0.1,0.1,0.2,0.1c0,0,0,0,0,0c-0.1,0.1-0.2,0.4-0.2,0.5c0,0.2,0.2,0.4,0.3,0.5C22,6.2,22.2,6,22.4,6
		C22.5,6.1,22.5,6.2,22.6,6.2 M22.6,8.2c-0.1,0-0.4-0.3-0.5-0.5c-0.1-0.3-0.1-0.5,0.2-0.7c0.2,0.1,0.5,0.3,0.5,0.5
		C22.8,7.8,22.8,8.1,22.6,8.2 M22.9,8.1c0.1-0.2,0.2-0.4,0.2-0.6c0-0.3-0.2-0.6-0.5-0.8c-0.5,0.2-0.8,0.5-0.8,1
		c0,0.3,0.2,0.8,0.7,0.8C22.6,8.4,22.8,8.2,22.9,8.1 M23.4,9.4c-0.1-0.1-0.2-0.2-0.3-0.3c-0.1,0.1-0.2,0.2-0.3,0.2
		c-0.1-0.1-0.2-0.2-0.3-0.3c-0.1,0.1-0.4,0.3-0.5,0.4c0.2,0,0.4,0.1,0.4,0.2c0,0.1,0,0.9,0,1c0.1,0,0.2,0,0.4,0c0-0.1,0-1,0-1.1
		c0,0,0.1-0.1,0.1-0.1c0.1,0,0.2,0.2,0.3,0.3C23.2,9.7,23.4,9.5,23.4,9.4C23.5,9.4,23.4,9.3,23.4,9.4 M23.4,7.8c0.1,0,0.2,0,0.3,0
		c0.1,0,0-0.1,0-0.1c-0.1,0-0.2,0-0.3,0C23.3,7.6,23.3,7.7,23.4,7.8 M23.7,7.4c-0.1,0-0.2,0-0.3,0c-0.1,0-0.1,0.1,0,0.1
		c0.1,0,0.2,0,0.3,0C23.7,7.6,23.7,7.4,23.7,7.4 M25.6,26.2c-0.2,0.7-0.4,1.4-0.9,2.1c-0.3,0.5-0.4-0.4-0.2-1.3
		C25,26.9,25.3,26.6,25.6,26.2 M25.2,26.4c-1,1-2.5,0.6-3.7,1.2c-1.1,0.4-1.8,1.4-3,1.6c-0.3,0.1-0.4,0.3-0.2,0.3
		c0.1,0,0.8,0.7,1.9,0.2c0.4-0.2,1.5-0.8,1.7-0.9c-0.6,0.6-0.9,1.1-1.5,1.4c-0.3,0.2-1.7,0.7-3.1,0.4c-0.6-0.1-1.1,0.4-0.9,0.4
		c0.3-0.1,0.7,0,0.9,0.2c0.4,0.3,1,0.7,1.5,0.1c0.2-0.2,0.9-0.6,1.7,0.1c-0.8,0-0.7,1.4-2.2,1.2c-0.5,0-1.8-1.3-2.1-0.9
		c-0.6,0.7,1.3,1.3,0.5,2.2c-0.8,0.8-1.7-0.6-1.7-0.6c0.5,0.2,1.3,0.3,1-0.4c-0.2-0.3-0.4-0.6-0.4-1.1c-0.1-0.3-1.8,2.2-2.9,1.1
		c-0.4-0.4-1.4-1.4-2.2-1.8c2.2-0.2,2.5,0.7,2.6,0.8c0.7,0.9,1.3,0,1.5-0.2c0.2-0.3,0.5-0.6,0.4-0.7c-0.8-0.4-1.8-0.5-2.5-0.2
		c1.5-2.1,2.7-0.1,2.7-0.1c0.2,0.1,0-1.3-1.6-1.3c-1,0-1.8,0.8-2.4,0.8c-0.5,0-2.2-1.1-2.5-2.1c0.9,0.7,2.1,1.1,2.9,0.7
		c1.4-0.8,3.2,0.4,3.3,0.3c-0.4-0.3-1.3-1.5-3.7-0.8c-0.9,0.5-1.3-0.4-1.9-0.4c1-0.9,1.7-0.4,2-0.4c0.1,0-0.4-0.4-0.8-0.4
		c-2.7-0.3-4.4-1-4.4-1c0,0,0.2-0.5,1.4-0.2c0,0-1-0.6-1-1.4c0-0.5,0.3-1-0.1-1.5c1.6-0.1,0.4,2.1,1.5,2.7c0,0-0.3-0.5,0.2-0.9
		c0.2,0.6,0.8,1,1.2,1.1c0.1,0,0.2-0.2,0.2-0.2C9,24.9,9,24.1,9.1,23.2l0,0c0.1,0,0.2,0.3,0.3,0.5c0.2,0.5,0.2,1.2,0.7,1.8
		c0.2,0.3,0.4,0.6,0.6,0.8c0.1-0.2,0-0.6,0-0.7c-0.1-0.4-0.3-1,0.3-1.6c0.3,0.8,0.7,0.6,0.7,1c0.1,0.6,0.1,0.5,0,0.9
		c0,0.6,0.6,0.8,1.1,1.2c1.1,0.6,1.8,0.9,2.3,1.7c0.2-1.3-3.2-1.5-2.8-4c0-1,0.1-1.1-0.6-1.7c1.4,0,2.2,2.3,2.2,2.8
		c0.1,0.8,0.6,0.8,1.2,1.8c0.1,0-1.1-2.7,0.3-5c0,0,0.5,1.2,0.3,2c-0.1,0.5,0,1,0,1.3c0,0.3-0.1-1.1,1-1.8c0.1,0.5,0.6,1.4,0.1,2.2
		c-0.6,1.1-0.6,0.7-0.6,2c0.1,0,0.2-0.9,0.6-1.4c0.9-1.1,0.2-1.6,1.1-2.6c0.1,0.5,0.2,0.3,0.2,0.7c0.1,0.9-0.9,1.9-0.6,1.9
		c0.2,0,0.6-0.2,0.8-0.9c0,0,0.4,0.6,0,0.8c-0.6,0.4-0.7,0.8-0.6,1.3c0.5-0.6,1.1-1.2,1-2c0.1-0.5,0.6-0.7,0.7-1.8
		c0-0.2,0.2-0.4,0.4-0.5c-0.1,0.6,0.4,1.3-0.1,2.1c0.1,0.1,0.6-0.6,1.3-0.4c-1.4,0.2-1,1.7-2,2.4c-0.3,0.2-0.3,0.4-0.4,0.5
		c0.9-0.1,1.7-1.2,1.8-1.3c0.9-0.6,1.2-0.7,1.5-1.8c0.1-0.4,0-0.6,0.6-1.1c0.2,0.5-0.1,1.6-0.2,1.9c-0.2,0.5-0.8,0.9-0.6,0.9
		c2.5-1.1,2.5-1.9,3.1-2.7c0.2-0.3,1.1-0.8,1.4-0.9c-0.1,0.2-0.4,0.4-0.5,0.8c0,0.6-0.2,0.9-0.5,1.4c0.2,0.2,0.5-0.4,0.8-0.1
		C25.7,25.6,25.5,26.1,25.2,26.4 M22.8,25.6c0.1-0.3,0.1-0.4,0.1-0.7c0-0.1,0-0.1,0-0.2c0,0,0.7,0.6,0.8,0.6
		c-0.2,0.2-0.3,0.3-0.5,0.5C23.1,25.7,22.8,25.6,22.8,25.6 M23.1,26c-0.3,0.3-0.5,0.4-0.5,0.2c0.1-0.2,0.1-0.3,0.2-0.4
		C22.8,25.8,23.1,26,23.1,26 M26.3,23.1c-0.3,0.1-1.1,0.4-1.3,0.7c0.1-1.7-0.5-3.4-0.6-3.8c-0.3-0.8,0.2,1.9,0.2,2.5
		c0,0-2.9-3.7-1.1-0.8c0.4,0.7,1.1,1.2,1.1,1.2c0,0.5,0,0.9-0.1,1.2c-0.2,0.1-3.9-5-1.8-1.4c0.3,0.4,1.8,1.8,1.7,1.8
		c-0.1,0.2-0.3,0.5-0.5,0.7c0,0-0.9-0.6-0.9-0.7c-0.1-0.4-0.1-0.8-0.6-0.5c0,0-1.8-2.1-1-0.6c0.4,0.7,0.6,0.7,0.7,0.8
		c0,0-0.3,0.4-0.4,0.8c0,0.2-1.6-1.7-1-0.5c0.2,0.4,0.9,0.8,0.9,0.8c-0.1,0.2-0.1,0.5-0.2,0.6c-0.1,0.2-1.5,1.3-1.5,1.3
		c0,0,0.3-0.9,0.8-1.3c0.3-0.2,0.3-0.2,0.6-0.3c0-0.1-0.1-0.3-0.3-0.4c-0.2-0.1-0.8,0-0.8,0c0.1-0.3-0.2-1-0.2-1.8
		c-0.2,0-0.7,0.4-0.8,0.6c-0.1,1.3-0.4,0.9-0.6,1.8c-0.3-0.4,0-0.9-0.3-1.3c-0.4-0.5-0.4-0.8-0.5-1.4c0.1,0,0.5-0.5,0.1-1.4
		c-0.1-1.4,0.6-1.9-0.6-2.9c0.1,0,0.2-0.7,0.2-0.7c0.8,0.4,0.7-0.5,1-0.7c0.5-0.3,0.4-0.6,0.2-1c1.5,0.4-0.1,1.4,0.6,1.4
		c0.5,0,0.8-0.1,1-0.4c0.2-0.3,0-0.6,0.6-1.1c0.1-0.1,0.2-0.4-0.3-0.5c-0.1,0,0-0.4,0-0.4c-0.4,0.3-0.5,0.8-1.2,0.5
		c-0.3-0.2-0.5,0-0.7,0.1c0,0-0.1-0.3,0.2-0.4c0.7-0.2,0.9-0.5,0.8-0.7c-0.1-0.4-0.1,0-0.1-0.4c0-0.2,0.2-0.4,0.3-0.5
		c0.5-0.6,0.8-0.4,0.9-0.3c0.3-0.2,0.3-0.2,0.6-0.3c0.4-0.2,1.4,0.1,1.9,0.4c0.3,0.1,0.6,0.2,0.9,0.1c0,0.2-0.1,0.2-0.2,0.3
		c-0.2,0.1-0.4,0-0.3,0.1c0,0.1,0.2,0.1,0.4,0.1c0.8,0.2,1.8,0.9,1.1,0.8c-0.1,0,0.5,0.4,0.9,1l1.5,1.5c-0.1,0.1-0.6,0-2.3-1.5
		c-0.2,0.2,2,1.9,2.9,3.7c-0.1,0.1-1.2-0.4-1.7-0.8c-0.6-0.7-1.4-2.4-1.7-2.1c0,0,1.2,2,1.8,3.1c0.3,0.6,0.6,1.4,0.6,2.1
		c0.1,3.1-0.4,2.9-0.4,2.9c-0.7-2.5-1.1-5.3-2.2-6.7C24.7,17.7,26.2,20.6,26.3,23.1 M27.5,6.3c0,0,0-0.1,0-0.2
		c0-0.2-0.5-0.3-0.8-0.1c-0.5,0.2-1.6,0.9-2,0.7V5.1c1,0.4,1.4,0,1.8,0c1,0,1.1,1,1.1,1C27.5,6.2,27.5,6.3,27.5,6.3 M26.4,8.6
		c0.9-0.1,1,0.9,1,0.9h0c-0.2-0.2-0.7-0.3-1-0.1c-1,0.6-1.9,0.7-1.9,0.7V8.5C24.6,8.5,24.8,8.8,26.4,8.6 M24.3,11.8
		c-1.6,0.1-5-0.8-5.9-0.8c-1.8,0-2.6,0.7-2.6,0.7s0-8.1,0-8.4c0,0,2.3-1.1,4-0.5c2.1,0.8,4.5,0.4,4.5,0.4V11.8z M17.5,13.1
		c0.1,0.3-0.2,0.4-0.2,0.4c0.5,0.1,0.7-0.2,0.8-0.3c0.2,0.7-0.6,0.8-0.8,0.8c0,0,0.4,0.1,0.4,0.4c0,0.6,0.5,0.6,0.5,0.5
		c0,0.1-0.1,0.5-0.6,0.1c-0.1,0.1,0.1,0.2,0.2,0.5c0.1,0.4,0,0.8,0.5,1c-0.3,0.2-0.6-0.4-0.6-0.3c0,0.1,0.4,0.3-0.1,1.4
		c-0.2-0.1-0.1-0.1-0.3-0.4c-0.2-0.2-0.3-0.2-0.1,0.1c0.3,0.3,0.3,1.1,0.2,1.3c-0.2-0.1-0.2-0.3-0.4-0.5c0,0.1,0.1,0.6,0.4,0.9
		c0.5,0.4,0.6,0.9,0.7,1c0,0.4-0.1,0.9-0.1,1.4c-0.2,0-0.4-0.7-0.5-0.6c-0.1,0,0,0.6,0.5,1c0.2,0.6,0.1,0.9,0.1,1
		c-0.1,0-0.3-0.6-0.4-0.5c0.6,1.6,0.2,2.1,0,2.6c-0.1-0.5-0.2-0.9-0.3-1.4c-0.3,0.3-0.4,0.6-0.8,1c0-0.6-0.4-2.2-0.7-2.5
		c0,0-0.5,1.4-0.8,2c-0.3,0.8-0.3,1.8,0,2.6c-0.8-1.1-0.8-3.1-0.2-3.3c0.1-0.1,0-0.6-0.2-0.6c0,0.2,0,0.4-0.2,0.7
		c-0.5-0.1-0.3-0.8-0.2-1c0.6-0.8,0.2-1,0.2-0.9c-0.1,0.2-0.1,0.4-0.3,0.5c-0.4-0.7-0.2-1.8,0.6-2.7c0-0.3-0.4,0.2-0.6,0.2
		c-0.1-0.6,0.2-1.6,1.3-1.7c-0.2-0.1-0.3-0.1-0.4-0.3c0.3,0,1.4-0.1,1.2-1c-0.1,0.1-0.1,0.2-0.4,0.4c-0.2,0.1-0.4,0.1-0.5,0
		c0.5-0.2,0.3-0.8-0.3-0.6c-0.2,0.1-0.5-0.2-0.5-0.4c0.1,0.1,0.4,0,0.6-0.1c0.7-0.5,1.2,0.2,1.3,0.4c0,0,0.3-0.7-0.7-0.9
		c-0.1-0.2-0.3-0.7-1-0.6c-0.2-0.8-0.9-0.4-0.9,0c-0.7-0.5,0-1.2,0.3-1.3c0.2,0,0.2,0.7,0.5,0.6c0.1,0-0.3-0.4-0.1-0.6
		c0.3-0.2,0.3,0.2,0.5,0.1c0.1-0.3,0.4-0.4,0.7-0.5C16.2,12.7,16.8,13.5,17.5,13.1 M15.4,11.7c0,0-1.1-0.6-2.4-0.7
		c-1.3-0.1-3.8,0.9-5.7,0.8V3.3c0,0,2.2,0.3,3.1-0.1c3.1-1.2,5,0.1,5,0.1V11.7z M6.8,9.9H5.7v-1h1.1V9.9z M6.8,6.3H5.7v-1h1.1V6.3z
		 M4.5,10.2c-1.2,0-1.2-1.8,0-1.8C5.7,8.4,5.7,10.2,4.5,10.2 M4.5,6.6c-1.2,0-1.2-1.8,0-1.8C5.7,4.8,5.7,6.6,4.5,6.6 M12.5,15.1
		c-0.2-0.4,0.3-0.7,0.3-0.7c0,1.1,1.3,0.3,2.1,0.7c0.2,0.1,0.3,0.2,0.4,0.4C14.4,14.9,13,15.9,12.5,15.1 M8.8,24.1
		c0,0.4,0,0.6,0.1,1c0.2,0.6,0.1,0.4-0.1,0.2c-0.2-0.2-0.4-0.4-0.5-0.6C8.3,24.5,8.4,24.5,8.8,24.1 M6.1,16.6L6.1,16.6
		c0,0-1.8,1.1-2.9,0.6c0.8-0.5,3.8-2.3,4.6-2.8c0.4,0.1,0.5-0.1,0.6-0.1c-0.3,0-1.3,0.2-0.8-0.7c0.2,0.8,1.6,0.1,2.1-0.1
		c1.4-0.3,1.4,1.2,1.3,1.8c0,0.2,0.4,0.4,0.7,0.4c-0.4,1-1.1,0.1-1.2,0.4c0,0.2-0.5,0.3-0.5,0.7c0,0.5,0.2,0.2,0.2,0.6
		c0,0.4-0.2,0.1-0.1,0.5c0.1,0.7,1.2-0.1,1.7,0.1c0.2,0.1,0.4,0.3,0.6,0.3c0.1-0.1,0-0.3,0-0.4c0-0.2-0.4-0.2-0.6-0.5
		c-0.2-0.3,0.2-1,0.4-1.3c0.3,1.3,1.5,0.9,1.6,2.2c0.1,0.4-0.4,0.8,0,1.4c-0.3,0.3-0.7,1.8,0,2.4c-0.1,0.3-0.3,1,0.3,1.4
		c-0.2,0.4-0.2,0.9,0,1.5c-0.4,0-0.3-2-2.5-2.1c0,0-0.1,0.2,0,0.3c0.3,0.5,0.6,0.4,0.5,1.5c0,0.4-0.2-0.1-0.4-0.2
		c-0.3-0.2-0.5-0.3-0.6-1c-0.9,0.7-0.8,1.5-0.7,2c0,0-0.2-0.5-0.4-1.1c0,0,0.9-1.1,1.1-1.4c1.8-3.3-1.2,1.1-1.2,1.1
		c-0.2-0.4-0.3-0.7-0.4-0.8c0,0,0.5-0.6,0.8-1.1c1.4-3-0.8,1-0.9,0.9c-0.2-0.2-0.3-0.3-0.4-0.3c0,0.5-0.1,0.4-0.1,0.9
		c-0.2,0.3-0.7,0.8-1.1,1.1c0,0-0.1-0.8-0.1-0.9c0.2-0.2,0.9-1,1-1.2c2.3-3.7-1.1,0.9-1.1,0.8c0-0.1-0.2-0.4-0.4-0.6
		c0,0,0.8-1,0.9-1.4c1.4-2.9-1.1,1.3-1.2,1.3c-0.1,0-0.1,0-0.1-0.1c-0.1,0,0.1-0.8,0.2-1.3c0.2-1-0.3-0.2-0.5,1.4
		c-0.1,0-0.5,0.1-0.6,0.2C6,23.3,6.1,23,6.2,23.4c0.2,0.5-0.3,1.3,0.1,1.8c0.2,0.2,0.2,0.2,0.1,0.3c-0.3,0-0.4,0-0.6,0.2
		c-0.3-1.5-0.3-2.2-0.2-3.7c0-0.7,0.3-1.7,0.2-1.7c-0.1,0-1.6,4-2,4.8c-0.7-0.2,0.4-3.7,1.8-5.3c0.1-0.5-0.7,0.5-1.2,1
		c-0.5,0.4-1,0.9-1.7,0.7c0.8-0.9,2.7-2.5,2.9-2.9c0.2-0.3-1.3,1.1-2.8,0.5C3.8,18.6,6.1,17.4,6.1,16.6 M6.1,26.3
		c0.3,0.2,0.6,0.2,0.8,0.4c0.3,0.9,0,1.8-0.2,1.4C6.4,27.4,6.3,26.9,6.1,26.3 M29.5,21.4l0-19.8C13.6,0,1.6,1.6,1.6,1.6
		s0,19.8,0,19.8c1.3,13.4,13.8,15,14,15C17.8,35.9,28.3,33.8,29.5,21.4 M36.9,26.2c0,3.7,1.8,6.3,4,7.8c2.1,1.4,4.5,1.9,7.1,1.9
		c1.8,0,3.9-0.4,4.5-0.7c0.3-0.1,0.7-0.2,1-0.3c0.4-0.5,1.2-2.4,1.4-3.9c-0.1-0.2-0.5-0.3-0.7-0.1c-0.7,1.7-2.3,4.1-5.9,4.1
		c-4.7,0-8.4-3.3-8.4-9.3c0-5.9,3.7-8.6,8-8.6c4.1,0,5.4,2.2,5.8,4.1c0.2,0.2,0.6,0.1,0.8-0.1C54.1,19.5,54,17.7,54,17
		c-0.3,0-0.5,0-0.8-0.1c-1.3-0.4-3.5-0.7-5-0.7c-3,0-5.6,0.8-7.7,2.4C38.3,20.3,36.9,23,36.9,26.2 M45,1.5L45,1.5L45,1.5
		c-0.1-0.2-0.2-0.2-0.2-0.2c0,0-0.1,0-0.1,0l0,0l0,0c-0.2,0.3-0.2,0.3-0.8,0.3h-4.9c-0.5,0-0.8,0-0.8-0.3l0,0l0,0c0,0-0.1,0-0.2,0
		c0,0-0.1,0-0.2,0l0,0l0,0c-0.1,0.5-0.3,1.2-0.4,1.8l0,0l0,0c0.1,0.1,0.3,0.2,0.4,0.1l0,0l0,0c0.1-0.3,0.2-0.5,0.5-0.8
		c0.3-0.2,0.9-0.3,1.4-0.3h0.6c0.3,0,0.3,0,0.3,0.3v5.3c0,1.3-0.1,1.3-0.7,1.4l-0.4,0l0,0c-0.1,0-0.1,0.1-0.1,0.2
		c0,0.1,0,0.2,0.1,0.2l0,0h0c0.7,0,1.2,0,1.6,0c0.5,0,0.8,0,1.5,0h0l0,0c0.1,0,0.1-0.1,0.1-0.2c0-0.1,0-0.2-0.1-0.2l-0.4,0
		c-0.6-0.1-0.6-0.1-0.6-1.4V2.5c0-0.1,0-0.2,0-0.3c0,0,0.1,0,0.2,0h0.8c0.6,0,1.1,0.1,1.3,0.3c0.1,0.1,0.2,0.4,0.3,0.8l0,0l0,0
		c0,0.1,0.1,0.1,0.2,0.1c0.1,0,0.2,0,0.2-0.1l0,0l0,0C44.7,3,44.8,2,45,1.5 M54.7,7.9V3.6c0-1.3,0-1.3,0.6-1.4l0.2,0l0,0
		c0.1,0,0.1-0.1,0.1-0.2c0,0,0-0.2-0.1-0.2l0,0l0,0c-0.6,0-1,0-1.4,0c-0.5,0-0.9,0-1.4,0l0,0l0,0c-0.1,0-0.1,0.2-0.1,0.2
		c0,0.1,0,0.2,0.1,0.2l0.3,0c0.6,0.1,0.6,0.1,0.6,1.4V5c0,0.3,0,0.3-0.5,0.3h-3.4c-0.5,0-0.5,0-0.5-0.3V3.6c0-1.3,0-1.3,0.6-1.4
		l0.2,0l0,0c0.1,0,0.1-0.1,0.1-0.2c0,0,0-0.2-0.1-0.2l0,0l0,0c-0.5,0-0.9,0-1.4,0c-0.3,0-0.6,0-0.9,0c-0.2,0-0.4,0-0.6,0l0,0l0,0
		c-0.1,0-0.1,0.2-0.1,0.2c0,0.1,0,0.2,0.1,0.2l0,0l0.3,0c0.5,0,0.6,0.1,0.6,1.4v4.3c0,1.2,0,1.3-0.6,1.4l-0.2,0l0,0
		c-0.1,0.1-0.1,0.2-0.1,0.3c0,0.1,0.1,0.2,0.1,0.2l0,0h0c0.2,0,0.3,0,0.5,0c0.3,0,0.6,0,0.9,0c0.4,0,0.8,0,1.5,0l0,0l0,0
		c0.1,0,0.1-0.1,0.1-0.2c0-0.1,0-0.2-0.1-0.2l-0.4,0c-0.6-0.1-0.6-0.1-0.6-1.4V6.2c0-0.3,0-0.3,0.5-0.3H53c0.5,0,0.5,0,0.5,0.3v1.7
		c0,1.3,0,1.3-0.6,1.4l-0.3,0l0,0c-0.1,0.1-0.1,0.2-0.1,0.3c0,0.1,0.1,0.2,0.1,0.2l0,0l0,0c0.6,0,1,0,1.4,0c0.5,0,0.9,0,1.4,0l0,0
		l0,0c0.1,0,0.1-0.2,0.1-0.2c0-0.1,0-0.2-0.1-0.2l-0.3-0.1C54.7,9.2,54.7,9.1,54.7,7.9 M64.6,8L64.6,8L64.6,8
		c-0.1-0.2-0.2-0.2-0.3-0.2c-0.1,0-0.1,0-0.2,0l0,0c-0.3,0.7-0.6,1-0.8,1.1c-0.3,0.1-0.6,0.2-1.5,0.2c-1,0-1.2-0.1-1.4-0.2
		c-0.2-0.2-0.2-0.6-0.2-1.2V6.1c0-0.2,0-0.2,0.3-0.2h0.7c0.4,0,0.7,0,0.9,0.1c0.2,0,0.2,0.1,0.3,0.4l0.1,0.5l0,0
		c0,0.1,0.1,0.1,0.2,0.1c0.1,0,0.2,0,0.2-0.1l0,0v0c0-0.1,0-0.3,0-0.4c0-0.2,0-0.5,0-0.7c0-0.2,0-0.5,0-0.7c0-0.2,0-0.3,0-0.5v0l0,0
		c0-0.1-0.1-0.1-0.2-0.1c-0.1,0-0.2,0-0.2,0.1l-0.1,0.5c-0.1,0.3-0.1,0.3-0.2,0.3c-0.1,0-0.5,0.1-1,0.1h-0.7c-0.3,0-0.3,0-0.3-0.2
		V2.7c0-0.4,0-0.4,0.3-0.4h0.9c0.5,0,0.9,0,1.1,0.1c0.5,0.1,0.6,0.5,0.8,1l0,0.1l0,0c0,0,0.1,0.1,0.2,0.1c0.1,0,0.2,0,0.2-0.1l0,0
		l0-0.2c-0.1-0.7-0.1-1.3-0.2-1.5l0-0.1l-0.1,0c-0.1,0-0.9,0-1.6,0h-2.2c-0.5,0-0.8,0-1.4,0l0,0l0,0c-0.1,0-0.1,0.2-0.1,0.2
		c0,0.1,0,0.2,0.1,0.2l0.2,0c0.6,0.1,0.6,0.1,0.6,1.4v4.3c0,1.3-0.1,1.3-0.7,1.4l-0.4,0l0,0C58,9.4,58,9.5,58,9.6
		c0,0.1,0.1,0.2,0.1,0.2l0,0h0c0.7,0,1.1,0,1.6,0h1.1c1,0,2.1,0,3.2,0l0.1,0l0-0.1C64.2,9.4,64.5,8.5,64.6,8 M65.7,17.3
		c0.2-0.1,0.1-0.6-0.1-0.7c-1.2,0.1-2.2,0.1-3.3,0.1c-1.2,0-2.2-0.1-3.6-0.1c-0.2,0.1-0.2,0.6-0.1,0.7l0.7,0.1
		c1.5,0.1,1.7,0.6,1.7,3.6v10.2c0,3-0.1,3.3-1.6,3.6L59,34.8c-0.2,0.2-0.1,0.6,0.1,0.7c1.1,0,2.1-0.1,3.3-0.1c1.1,0,2.1,0,3.6,0.1
		c0.2-0.1,0.2-0.6,0.1-0.7l-0.8-0.1c-1.6-0.2-1.7-0.6-1.7-3.6v-4c0-0.9,0.1-0.9,1.4-0.9H73c1.4,0,1.4,0.1,1.4,0.9v4
		c0,3,0,3.3-1.7,3.6l-0.5,0.1c-0.2,0.2-0.1,0.6,0.1,0.7c1.2-0.1,2.3-0.1,3.4-0.1c1.1,0,2.1,0,3.4,0.1c0.2-0.1,0.2-0.6,0.1-0.7
		l-0.7-0.1c-1.6-0.2-1.7-0.6-1.7-3.6V20.9c0-3,0.1-3.4,1.7-3.6l0.6-0.1c0.2-0.1,0.1-0.6-0.1-0.7c-1.3,0.1-2.2,0.1-3.4,0.1
		c-1.2,0-2.1,0-3.4-0.1c-0.2,0.1-0.2,0.6-0.1,0.7l0.5,0.1c1.7,0.2,1.7,0.6,1.7,3.6v3.3c0,0.9-0.1,0.9-1.4,0.9h-8.1
		c-1.4,0-1.4,0-1.4-0.9v-3.3c0-3,0.1-3.4,1.7-3.6L65.7,17.3z M79.3,2.1c0.1-0.1,0.1-0.2,0.1-0.2c0-0.1-0.1-0.1-0.1-0.2l0,0l0,0
		c-0.4,0-0.7,0-1.2,0c-0.5,0-0.9,0-1.3,0l0,0l0,0c-0.1,0-0.1,0.1-0.1,0.2c0,0.1,0,0.2,0.1,0.2l0,0l0.3,0c0.3,0,0.5,0.1,0.5,0.2
		c0.1,0.2,0.2,1.1,0.2,2.4v1.4c0,1.4-0.4,3.1-2.3,3.1c-1.6,0-2.3-1-2.3-3.1V3.6c0-1.3,0-1.4,0.6-1.4l0.3,0l0,0
		c0.1,0,0.1-0.1,0.1-0.2c0-0.1,0-0.2-0.1-0.2l0,0l0,0c-0.6,0-1,0-1.5,0c-0.5,0-0.9,0-1.5,0l0,0l0,0c-0.1,0-0.1,0.1-0.1,0.2
		c0,0.1,0,0.2,0.1,0.2l0,0l0.3,0c0.6,0.1,0.6,0.1,0.6,1.4v2.8c0,1.4,0.3,2.3,1,2.9c0.5,0.4,1.3,0.7,2.3,0.7c0.9,0,1.8-0.3,2.3-0.9
		c0.6-0.6,0.9-1.6,0.9-2.9V4.8c0-0.6,0-2,0.2-2.4c0.1-0.1,0.3-0.2,0.5-0.2L79.3,2.1L79.3,2.1z M90,2.1C90,2.1,90,2,90,1.9
		c0-0.1-0.1-0.2-0.1-0.2l0,0l0,0c-0.4,0-0.7,0-1.2,0c-0.4,0-0.8,0-1.4,0l0,0l0,0c-0.1,0-0.1,0.1-0.1,0.2c0,0.1,0,0.2,0.1,0.3l0,0
		l0.2,0c0.4,0.1,0.6,0.1,0.7,0.2c0.1,0.2,0.2,1.1,0.2,2.4v2.5c0,0.1,0,0.2,0,0.3c-0.4-0.4-0.8-0.9-1.4-1.5l-1.6-1.8
		c-1.2-1.3-1.8-2.2-2-2.6l0-0.1l-0.1,0c-0.1,0-0.3,0-0.5,0c-0.2,0-0.8,0-1.3,0l0,0l0,0c-0.1,0-0.1,0.1-0.1,0.2c0,0.1,0,0.2,0.1,0.3
		l0,0l0.2,0c0.3,0,0.6,0.1,0.7,0.3c0.2,0.2,0.2,0.5,0.2,0.8v3.5c0,0.6,0,1.9-0.1,2.3c0,0.1-0.1,0.1-0.4,0.2l-0.4,0l0,0
		c-0.1,0.1-0.1,0.1-0.1,0.2c0,0.1,0,0.2,0.1,0.2l0,0l0,0c0.4,0,0.7,0,1.2,0c0.4,0,0.8,0,1.4,0l0,0l0,0c0.1,0,0.1-0.1,0.1-0.2
		c0-0.1,0-0.2-0.1-0.2l0,0l-0.4,0c-0.3,0-0.5-0.1-0.5-0.2c-0.1-0.2-0.2-1.1-0.2-2.4V4.1c0-0.2,0-0.4,0-0.6c0.2,0.2,0.5,0.6,0.8,0.9
		c0.2,0.2,0.4,0.4,0.5,0.6l2.7,3.1c0.9,1,1.3,1.6,1.5,1.8l0,0h0c0.2,0,0.3-0.1,0.3-0.2l0,0l0,0c0-0.1,0-0.6,0-2.1v-3
		c0-0.6,0-1.9,0.2-2.2c0,0,0.2-0.1,0.6-0.2L90,2.1L90,2.1z M88.5,31.1V21c0-3,0.1-3.5,1.7-3.6l0.7-0.1c0.2-0.1,0.1-0.6-0.1-0.7
		c-1.4,0.1-2.4,0.1-3.5,0.1c-1.2,0-2.2,0-3.6-0.1c-0.2,0.1-0.2,0.6-0.1,0.7l0.7,0.1c1.7,0.1,1.7,0.6,1.7,3.6v10.1
		c0,3-0.1,3.4-1.7,3.6l-0.7,0.1c-0.2,0.2-0.1,0.6,0.1,0.7c1.4-0.1,2.4-0.1,3.6-0.1c1.1,0,2.1,0,3.5,0.1c0.2-0.1,0.2-0.6,0.1-0.7
		l-0.7-0.1C88.6,34.5,88.5,34.1,88.5,31.1 M94.4,7.8V3.6c0-1.3,0-1.4,0.6-1.4l0.3,0l0,0c0.1,0,0.1-0.1,0.1-0.2c0,0,0-0.2-0.1-0.2
		l0,0l0,0c-0.6,0-1,0-1.5,0c-0.5,0-0.9,0-1.5,0l0,0l0,0c-0.1,0-0.1,0.2-0.1,0.2c0,0.1,0,0.2,0.1,0.2l0,0l0.3,0
		c0.6,0.1,0.6,0.1,0.6,1.4v4.2c0,1.3,0,1.3-0.6,1.4l-0.3,0l0,0c-0.1,0.1-0.1,0.2-0.1,0.3c0,0.1,0.1,0.2,0.1,0.2l0,0l0,0
		c0.6,0,1,0,1.5,0c0.5,0,0.9,0,1.5,0l0,0l0,0c0.1,0,0.1-0.2,0.1-0.2c0-0.1,0-0.2-0.1-0.2l-0.3-0.1C94.5,9.2,94.4,9.1,94.4,7.8
		 M98.1,18.6c-2.2,1.7-3.6,4.4-3.6,7.5c0,3.7,1.8,6.3,4,7.8c2.1,1.4,4.5,1.9,7.1,1.9c1.8,0,3.9-0.4,4.5-0.7c0.3-0.1,0.7-0.2,1-0.3
		c0.4-0.5,1.2-2.4,1.4-3.9c-0.1-0.2-0.5-0.3-0.7-0.1c-0.7,1.7-2.3,4.1-5.9,4.1c-4.7,0-8.4-3.3-8.4-9.3c0-5.9,3.7-8.6,8-8.6
		c4.1,0,5.4,2.2,5.8,4.1c0.2,0.2,0.6,0.1,0.8-0.1c-0.2-1.7-0.4-3.5-0.4-4.2c-0.3,0-0.5,0-0.8-0.1c-1.3-0.4-3.5-0.7-5-0.7
		C102.8,16.2,100.1,17,98.1,18.6 M105.8,2.1c0.1-0.1,0.1-0.2,0.1-0.3c0-0.1-0.1-0.2-0.1-0.2l0,0l0,0c-0.4,0-0.8,0-1.1,0
		c-0.5,0-0.9,0-1.2,0l0,0l0,0c-0.1,0-0.1,0.1-0.1,0.2c0,0.1,0,0.2,0.1,0.2l0,0l0.2,0c0.4,0,0.5,0.1,0.5,0.1c0,0.1,0,0.2-0.1,0.4
		c-0.2,0.5-0.8,1.9-1.1,2.6c-0.1,0.2-0.2,0.5-0.3,0.8c-0.2,0.5-0.5,1.2-0.7,1.7c-0.6-1.3-1.1-2.6-1.6-3.9c-0.3-0.9-0.5-1.5-0.6-1.6
		c0,0,0.1-0.1,0.5-0.1l0.2,0l0,0c0.1-0.1,0.1-0.1,0.1-0.2c0-0.1-0.1-0.2-0.1-0.2l0,0l0,0c-0.5,0-0.9,0-1.4,0c-0.5,0-0.9,0-1.2,0l0,0
		l0,0c-0.1,0-0.1,0.1-0.1,0.2c0,0.1,0,0.2,0.1,0.2l0,0l0.2,0c0.5,0.1,0.6,0.3,0.9,0.9l2.1,5.1c0.2,0.6,0.4,1.1,0.5,1.6l0,0l0,0
		c0.1,0,0.1,0,0.2,0c0.1,0,0.1,0,0.2-0.1l0,0l0,0c0.2-0.6,0.8-2,1.2-3.1l0.6-1.5c0.5-1.2,1-2.2,1.3-2.7c0.2-0.2,0.3-0.4,0.5-0.4
		L105.8,2.1L105.8,2.1z M113.9,8L113.9,8L113.9,8c-0.1-0.2-0.2-0.2-0.3-0.2c-0.1,0-0.1,0-0.2,0l0,0c-0.3,0.7-0.6,1-0.8,1.1
		c-0.3,0.1-0.6,0.2-1.5,0.2c-1,0-1.2-0.1-1.4-0.2c-0.2-0.2-0.2-0.6-0.2-1.2V6.1c0-0.2,0-0.2,0.3-0.2h0.7c0.4,0,0.7,0,0.9,0.1
		c0.2,0,0.2,0.1,0.3,0.4l0.1,0.5l0,0c0,0.1,0.1,0.1,0.2,0.1c0.1,0,0.2,0,0.2-0.1l0,0v0c0-0.1,0-0.3,0-0.4c0-0.2,0-0.5,0-0.7
		c0-0.2,0-0.5,0-0.7c0-0.2,0-0.3,0-0.5v0l0,0c0-0.1-0.1-0.1-0.2-0.1c-0.1,0-0.2,0-0.2,0.1l-0.1,0.5c-0.1,0.3-0.1,0.3-0.2,0.3
		c-0.1,0-0.5,0.1-1,0.1h-0.7c-0.3,0-0.3,0-0.3-0.2V2.7c0-0.4,0-0.4,0.3-0.4h0.9c0.5,0,0.9,0,1.1,0.1c0.5,0.1,0.6,0.5,0.8,1l0,0.1
		l0,0c0,0,0.1,0.1,0.2,0.1c0.1,0,0.2,0,0.2-0.1l0,0l0-0.2c-0.1-0.7-0.1-1.3-0.2-1.5l0-0.1l-0.1,0c-0.1,0-0.9,0-1.6,0h-2.2
		c-0.5,0-0.8,0-1.4,0l0,0l0,0c-0.1,0-0.1,0.2-0.1,0.2c0,0.1,0,0.2,0.1,0.2l0.2,0c0.6,0.1,0.6,0.1,0.6,1.4v4.3c0,1.3-0.1,1.3-0.7,1.4
		l-0.4,0l0,0c-0.1,0.1-0.1,0.2-0.1,0.3c0,0.1,0.1,0.2,0.1,0.2l0,0h0c0.7,0,1.1,0,1.6,0h1.1c1,0,2.1,0,3.2,0l0.1,0l0-0.1
		C113.5,9.4,113.8,8.5,113.9,8 M120,5.4c-0.3,0.3-0.8,0.3-1.2,0.3c-0.5,0-0.7,0-0.7,0c0,0,0-0.2,0-0.3V2.5c0-0.3,0-0.3,0.7-0.3
		c1.3,0,1.8,0.9,1.8,1.7C120.6,4.6,120.4,5.1,120,5.4 M123.6,9.8c0.1,0,0.1-0.1,0.1-0.2c0-0.1-0.1-0.1-0.1-0.1l0,0
		c-0.3,0-0.6-0.1-0.8-0.3c-0.8-0.7-1.5-1.7-2.4-3.1c-0.1-0.1-0.1-0.1-0.1-0.2c0.4-0.2,1.5-0.7,1.5-2c0-1-0.6-1.5-1-1.7
		c-0.6-0.3-1.4-0.4-2-0.4c-1.1,0-1.9,0-2.6,0.1l0,0c-0.1,0-0.1,0.1-0.1,0.2c0,0.1,0,0.2,0.1,0.2l0,0l0.4,0c0.4,0,0.4,0.1,0.4,1.3
		v4.3c0,1.3,0,1.3-0.6,1.4l-0.3,0l0,0c-0.1,0.1-0.1,0.2-0.1,0.3c0,0.1,0.1,0.1,0.1,0.2l0,0l0,0c0.5,0,1,0,1.5,0c0.5,0,0.9,0,1.4,0
		l0,0l0,0c0.1,0,0.1-0.2,0.1-0.2c0-0.1,0-0.2-0.1-0.2l0,0l-0.3,0c-0.6-0.1-0.6-0.1-0.6-1.4V6.4c0-0.2,0-0.2,0.5-0.2
		c0.5,0,0.6,0.1,0.8,0.3c0.2,0.3,0.4,0.6,0.6,0.9c0.2,0.3,0.4,0.7,0.6,0.9c0.8,1.2,1.4,1.5,2.5,1.5C123.3,9.9,123.5,9.8,123.6,9.8
		L123.6,9.8z M126.6,3.3c0-0.5,0.2-1.2,1.3-1.2c1,0,1.4,0.7,1.5,1.3l0,0c0,0,0.1,0.1,0.2,0.1c0.1,0,0.2,0,0.3-0.1l0,0v0
		c0-0.5-0.1-1.2-0.2-1.5l0-0.1h-0.1c-0.1,0-0.2,0-0.4-0.1c-0.3-0.1-0.7-0.2-1.1-0.2c-1.5,0-2.5,0.9-2.5,2.1c0,1.1,0.8,1.8,1.3,2.1
		l1.1,0.7c0.8,0.5,0.9,1.1,0.9,1.6c0,0.6-0.4,1.3-1.4,1.3c-1.2,0-1.7-0.9-2-1.7l0,0c0-0.1-0.1-0.1-0.2-0.1c-0.1,0-0.2,0-0.3,0.1l0,0
		l0,0c0,0.5,0.2,1.4,0.3,1.7l0,0l0,0c0.2,0.1,0.9,0.4,1.9,0.4c1.6,0,2.6-0.9,2.6-2.3c0-0.9-0.5-1.7-1.5-2.4l-0.9-0.6
		C127.2,4.5,126.6,4,126.6,3.3 M125.4,27h-3.5c-0.8,0-0.8,0-0.6-0.7l1.8-4.9c0.3-0.9,0.6-1.5,0.7-1.7h0.1c0.2,0.3,0.4,1.1,0.7,1.8
		l1.5,4.6C126.3,26.9,126.3,27,125.4,27 M132.8,34.7c-1.2-0.1-1.6-0.6-2.4-3l-3.9-11.4c-0.4-1.2-0.9-2.6-1.3-3.8
		c-0.1-0.2-0.3-0.3-0.4-0.3c-0.3,0.4-0.8,0.9-1.5,1.1c0.1,0.5-0.1,1-0.5,2l-2.9,7.7c-1.2,3.2-2,5-2.5,6.3c-0.4,1-1,1.3-1.7,1.4
		l-0.9,0.1c-0.2,0.1-0.1,0.6,0.1,0.7c0.8,0,1.8-0.1,2.7-0.1c1.3,0,2.2,0,3,0.1c0.3-0.1,0.3-0.6,0.1-0.7l-0.9-0.1
		c-0.7-0.1-0.8-0.2-0.8-0.6c0-0.3,0.2-1.1,0.6-2.4l1-3c0.2-0.6,0.4-0.7,1.1-0.7h4.3c0.9,0,1,0.1,1.2,0.7l1.2,3.9
		c0.2,0.7,0.4,1.2,0.4,1.5c0,0.3-0.4,0.5-1,0.5l-0.8,0.1c-0.2,0.1-0.2,0.6,0.1,0.7c0.8,0,1.9-0.1,3.3-0.1c1.3,0,2.3,0,3.4,0.1
		c0.1-0.1,0.2-0.6,0-0.7L132.8,34.7z M134.7,7.8V3.6c0-1.3,0-1.4,0.6-1.4l0.3,0l0,0c0.1,0,0.1-0.1,0.1-0.2c0,0,0-0.2-0.1-0.2l0,0
		l0,0c-0.6,0-1,0-1.5,0c-0.5,0-0.9,0-1.5,0l0,0l0,0c-0.1,0-0.1,0.2-0.1,0.2c0,0.1,0,0.2,0.1,0.2l0,0l0.3,0c0.6,0.1,0.6,0.1,0.6,1.4
		v4.2c0,1.3,0,1.3-0.6,1.4l-0.3,0l0,0c-0.1,0.1-0.1,0.2-0.1,0.3c0,0.1,0.1,0.2,0.1,0.2l0,0l0,0c0.6,0,1,0,1.5,0c0.5,0,0.9,0,1.5,0
		l0,0l0,0c0.1,0,0.1-0.2,0.1-0.2c0-0.1,0-0.2-0.1-0.2l-0.3-0.1C134.8,9.2,134.7,9.1,134.7,7.8 M145.5,1.5L145.5,1.5L145.5,1.5
		c-0.1-0.2-0.2-0.2-0.2-0.2c0,0-0.1,0-0.1,0l0,0l0,0c-0.2,0.3-0.2,0.3-0.8,0.3h-4.9c-0.5,0-0.8,0-0.8-0.3l0,0l0,0c0,0-0.1,0-0.2,0
		c0,0-0.1,0-0.2,0l0,0l0,0c-0.1,0.5-0.3,1.2-0.4,1.8l0,0l0,0c0.1,0.1,0.3,0.2,0.4,0.1l0,0l0,0c0.1-0.3,0.2-0.5,0.5-0.8
		c0.3-0.2,0.9-0.3,1.4-0.3h0.7c0.3,0,0.3,0,0.3,0.3v5.3c0,1.3-0.1,1.3-0.7,1.4l-0.4,0l0,0c-0.1,0-0.1,0.1-0.1,0.2
		c0,0.1,0,0.2,0.1,0.2l0,0h0c0.7,0,1.2,0,1.6,0c0.5,0,0.8,0,1.5,0h0l0,0c0.1,0,0.1-0.2,0.1-0.2c0-0.1,0-0.2-0.1-0.2l-0.4-0.1
		c-0.6-0.1-0.6-0.1-0.6-1.4V2.5c0-0.1,0-0.2,0-0.3c0,0,0.1,0,0.2,0h0.8c0.6,0,1.1,0.1,1.3,0.3c0.1,0.1,0.2,0.4,0.3,0.8l0,0l0,0
		c0,0.1,0.1,0.1,0.2,0.1c0.1,0,0.2,0,0.2-0.1l0,0l0,0C145.3,3,145.4,2,145.5,1.5 M150.4,16.6c-0.5-0.1-2-0.4-3.6-0.4
		c-4.3,0-7.1,1.3-9,3.3c-1.8,1.9-2.6,4.3-2.6,6.7c0,2.5,0.9,4.7,2.6,6.5c2.2,2.2,5.3,3.2,8.7,3.2c1.5,0,3.6-0.3,5.1-0.7
		c0.5-0.1,1.1-0.3,1.4-0.3c0.1-0.1,0.1-0.3,0-0.3c-0.5-0.2-0.7-0.9-0.7-2v-1.6c0-1.4,0-2.2,1.2-2.4l0.5-0.1c0.2-0.2,0.2-0.6,0-0.7
		c-0.9,0.1-1.9,0.1-3,0.1c-1.7,0-3.2,0-4.1-0.1c-0.2,0.1-0.2,0.6,0,0.7l1.2,0.1c1.8,0.2,1.8,0.4,1.8,2.8v1.1c0,0.9-0.1,1.4-0.3,1.6
		c-0.3,0.5-1.4,0.9-3.1,0.9c-5.7,0-8.5-4.3-8.5-9.7c0-4.3,2.4-8.2,7.9-8.2c2.9,0,5,1,5.8,4c0.2,0.2,0.7,0.1,0.8-0.1
		c-0.3-1.7-0.4-3.2-0.4-4.1C151.8,17,150.9,16.8,150.4,16.6 M154.5,2.1c0.1-0.1,0.1-0.1,0.1-0.2c0-0.1-0.1-0.2-0.1-0.2l0,0l0,0
		c-0.8,0-1.3,0-2.2,0l0,0l0,0c-0.1,0-0.1,0.1-0.1,0.2c0,0.1,0,0.2,0.1,0.3l0,0l0.2,0c0.2,0,0.4,0.1,0.4,0.1c0,0.2-0.5,0.9-0.7,1.4
		L152,3.8c-0.3,0.6-0.6,1.1-1,1.9c-0.3-0.6-0.6-1.2-0.9-1.8c-0.1-0.2-0.2-0.5-0.3-0.7c-0.1-0.2-0.4-0.8-0.4-0.9c0,0,0.1-0.1,0.4-0.1
		l0.2,0l0,0c0.1-0.1,0.1-0.2,0.1-0.3c0-0.1-0.1-0.1-0.1-0.2l0,0l0,0c-0.3,0-0.7,0-1.3,0c-0.5,0-1,0-1.4,0l0,0l0,0
		c-0.1,0-0.1,0.1-0.1,0.2c0,0.1,0,0.2,0.1,0.3l0,0l0.4,0.1c0.3,0.1,0.5,0.1,0.9,0.9l1.4,2.7c0.3,0.6,0.4,0.8,0.4,1.4v0.6
		c0,1.3,0,1.4-0.6,1.4l-0.4,0l0,0c-0.1,0.1-0.1,0.2-0.1,0.3c0,0.1,0.1,0.2,0.1,0.2l0,0l0,0c0.6,0,1.1,0,1.5,0c0.5,0,0.9,0,1.6,0h0
		l0,0c0.1,0,0.1-0.1,0.1-0.2c0-0.1,0-0.2-0.1-0.3l0,0l-0.5,0c-0.5,0-0.6-0.1-0.6-1.4V7.2c0-0.9,0-1,0.5-1.9l0.7-1.3
		c0.1-0.1,0.1-0.2,0.2-0.3c0.5-0.8,0.8-1.4,1.3-1.5L154.5,2.1L154.5,2.1z M160.8,25.3c0-6.2,3.8-8.2,6.8-8.2c5.4,0,7.5,5.1,7.5,9.7
		c0,5.6-3.2,8.2-6.6,8.2C162.8,35,160.8,29.5,160.8,25.3 M158,26.2c0,5.1,3.8,9.6,10.1,9.6c5.5,0,9.9-4.2,9.9-9.9
		c0-5-3.3-9.7-9.9-9.7C162.2,16.2,158,20.6,158,26.2 M167.6,6.1c0,2.4-1.4,3.3-2.7,3.3c-2.4,0-3.1-2.5-3.1-3.9
		c0-2.5,1.5-3.3,2.7-3.3C166.8,2.1,167.6,4.2,167.6,6.1 M169,5.7c0-2-1.3-4.2-4.2-4.2c-2.5,0-4.3,1.8-4.3,4.3c0,2,1.5,4.1,4.3,4.1
		C167.2,9.9,169,8.1,169,5.7 M177,3.4L177,3.4L177,3.4c0-0.5,0-1,0-1.6V1.7l-0.1,0c-0.1,0-0.9,0-1.6,0h-2.2c-0.4,0-0.8,0-1.4,0l0,0
		l0,0c-0.1,0-0.1,0.2-0.1,0.2c0,0.1,0,0.2,0.1,0.2l0.2,0c0.6,0.1,0.6,0.1,0.6,1.4v4.3c0,1.3,0,1.3-0.6,1.4l-0.3,0l0,0
		c-0.1,0.1-0.1,0.2-0.1,0.3c0,0.1,0.1,0.2,0.1,0.2l0,0l0,0c0.6,0,1,0,1.5,0c0.5,0,0.9,0,1.6,0h0l0,0c0.1,0,0.1-0.1,0.1-0.2
		c0-0.1,0-0.2-0.1-0.2l-0.4,0c-0.6-0.1-0.6-0.1-0.6-1.4V6.2c0-0.2,0-0.2,0.3-0.2h0.8c0.4,0,0.7,0,0.9,0.1c0.2,0.1,0.3,0.2,0.3,0.4
		l0.1,0.5l0,0c0.1,0.1,0.4,0.1,0.4,0l0,0v0c0-0.1,0-0.3,0-0.5c0-0.2,0-0.5,0-0.7c0-0.2,0-0.5,0-0.7c0-0.2,0-0.4,0-0.5v0l0,0
		c-0.1-0.1-0.2-0.1-0.2-0.1c-0.1,0-0.2,0-0.2,0.1L175.9,5c-0.1,0.3-0.1,0.3-0.2,0.3c-0.1,0-0.5,0.1-1,0.1h-0.8c-0.3,0-0.3,0-0.3-0.2
		V2.7c0-0.4,0-0.4,0.3-0.4h0.7c0.5,0,0.9,0,1.1,0.1c0.5,0.1,0.7,0.5,0.8,1.1l0,0l0,0c0,0,0.1,0.1,0.2,0.1
		C176.8,3.5,176.9,3.5,177,3.4"/>
</g>
<rect x="184.6" y="1.7" class="st1" width="0.7" height="34.2"/>
<g>
	<defs>
		<rect id="SVGID_3_" x="1.6" y="0.9" width="234" height="35.5"/>
	</defs>
	<clipPath id="SVGID_4_">
		<use xlink:href="#SVGID_3_"  style="overflow:visible;"/>
	</clipPath>
	<path class="st2" d="M194,14.8l0.9-1.1c0.6,0.5,1.3,0.9,2.1,0.9c0.6,0,1-0.3,1-0.7v0c0-0.4-0.2-0.6-1.4-0.9
		c-1.4-0.4-2.3-0.8-2.3-2.2v0c0-1.3,1-2.1,2.5-2.1c1,0,1.9,0.3,2.6,0.9l-0.8,1.2c-0.6-0.4-1.2-0.7-1.8-0.7c-0.6,0-0.9,0.3-0.9,0.6v0
		c0,0.5,0.3,0.6,1.5,0.9c1.4,0.4,2.2,0.9,2.2,2.1v0c0,1.4-1.1,2.2-2.6,2.2C195.9,15.9,194.8,15.5,194,14.8"/>
	<path class="st2" d="M200.7,13.9v-3.5h1.5v3c0,0.7,0.3,1.1,0.9,1.1c0.6,0,1-0.4,1-1.1v-3h1.5v5.4h-1.5V15c-0.4,0.5-0.8,0.9-1.6,0.9
		C201.4,15.9,200.7,15.2,200.7,13.9"/>
	<path class="st2" d="M207,10.4h1.5v0.8c0.4-0.5,0.8-0.9,1.6-0.9c0.7,0,1.2,0.3,1.5,0.9c0.5-0.6,1-0.9,1.8-0.9c1.1,0,1.8,0.7,1.8,2
		v3.5h-1.5v-3c0-0.7-0.3-1.1-0.9-1.1c-0.6,0-0.9,0.4-0.9,1.1v3h-1.5v-3c0-0.7-0.3-1.1-0.9-1.1c-0.6,0-0.9,0.4-0.9,1.1v3H207V10.4z"
		/>
	<path class="st2" d="M216.6,10.4h1.5v0.8c0.4-0.5,0.8-0.9,1.6-0.9c0.7,0,1.2,0.3,1.5,0.9c0.5-0.6,1-0.9,1.8-0.9
		c1.1,0,1.8,0.7,1.8,2v3.5h-1.5v-3c0-0.7-0.3-1.1-0.9-1.1c-0.6,0-0.9,0.4-0.9,1.1v3h-1.5v-3c0-0.7-0.3-1.1-0.9-1.1
		c-0.6,0-0.9,0.4-0.9,1.1v3h-1.5V10.4z"/>
	<path class="st2" d="M229.7,12.7c-0.1-0.7-0.5-1.1-1.1-1.1c-0.6,0-1,0.5-1.2,1.1H229.7z M225.9,13.1L225.9,13.1
		c0-1.6,1.1-2.8,2.7-2.8c1.8,0,2.6,1.4,2.6,2.9c0,0.1,0,0.3,0,0.4h-3.8c0.2,0.7,0.6,1.1,1.3,1.1c0.5,0,0.9-0.2,1.3-0.6l0.9,0.8
		c-0.5,0.6-1.2,1-2.2,1C227.1,15.9,225.9,14.8,225.9,13.1"/>
	<path class="st2" d="M232.3,10.4h1.5v1.1c0.3-0.7,0.8-1.2,1.7-1.2v1.6h-0.1c-1,0-1.6,0.6-1.6,1.9v2h-1.5V10.4z"/>
	<path class="st2" d="M194,26.9l0.9-1.1c0.6,0.5,1.3,0.9,2.1,0.9c0.6,0,1-0.3,1-0.7v0c0-0.4-0.2-0.6-1.4-0.9
		c-1.4-0.4-2.3-0.8-2.3-2.2v0c0-1.3,1-2.1,2.5-2.1c1,0,1.9,0.3,2.6,0.9l-0.8,1.2c-0.6-0.4-1.2-0.7-1.8-0.7c-0.6,0-0.9,0.3-0.9,0.6v0
		c0,0.5,0.3,0.6,1.5,0.9c1.4,0.4,2.2,0.9,2.2,2.1v0c0,1.4-1.1,2.2-2.6,2.2C195.9,28,194.8,27.6,194,26.9"/>
	<path class="st2" d="M204.3,24.8c-0.1-0.7-0.5-1.1-1.1-1.1c-0.6,0-1,0.5-1.2,1.1H204.3z M200.5,25.2L200.5,25.2
		c0-1.6,1.1-2.8,2.7-2.8c1.8,0,2.6,1.4,2.6,2.9c0,0.1,0,0.3,0,0.4H202c0.2,0.7,0.6,1.1,1.3,1.1c0.5,0,0.9-0.2,1.3-0.6l0.9,0.8
		c-0.5,0.6-1.2,1-2.2,1C201.7,28,200.5,26.9,200.5,25.2"/>
	<path class="st2" d="M206.5,27.2l0.7-1c0.6,0.4,1.2,0.6,1.7,0.6c0.4,0,0.6-0.2,0.6-0.4v0c0-0.3-0.5-0.4-1.1-0.6
		c-0.8-0.2-1.6-0.6-1.6-1.6v0c0-1.1,0.9-1.7,2-1.7c0.7,0,1.4,0.2,2,0.6l-0.6,1.1c-0.5-0.3-1.1-0.5-1.5-0.5c-0.4,0-0.6,0.2-0.6,0.4v0
		c0,0.3,0.5,0.4,1.1,0.6c0.8,0.3,1.6,0.6,1.6,1.6v0c0,1.2-0.9,1.7-2.1,1.7C208.1,28,207.2,27.8,206.5,27.2"/>
	<path class="st2" d="M211.4,27.2l0.7-1c0.6,0.4,1.2,0.6,1.7,0.6c0.4,0,0.6-0.2,0.6-0.4v0c0-0.3-0.5-0.4-1.1-0.6
		c-0.8-0.2-1.6-0.6-1.6-1.6v0c0-1.1,0.9-1.7,2-1.7c0.7,0,1.4,0.2,2,0.6l-0.6,1.1c-0.5-0.3-1.1-0.5-1.5-0.5c-0.4,0-0.6,0.2-0.6,0.4v0
		c0,0.3,0.5,0.4,1.1,0.6c0.8,0.3,1.6,0.6,1.6,1.6v0c0,1.2-0.9,1.7-2.1,1.7C213,28,212.2,27.8,211.4,27.2"/>
</g>
<path class="st1" d="M217,22.5h1.5v5.4H217V22.5z M217,20.6h1.6v1.4H217V20.6z"/>
<g>
	<defs>
		<rect id="SVGID_5_" x="1.6" y="0.9" width="234" height="35.5"/>
	</defs>
	<clipPath id="SVGID_6_">
		<use xlink:href="#SVGID_5_"  style="overflow:visible;"/>
	</clipPath>
	<path class="st3" d="M224,25.2L224,25.2c0-0.8-0.6-1.5-1.4-1.5c-0.9,0-1.4,0.7-1.4,1.5v0c0,0.8,0.6,1.5,1.4,1.5
		C223.5,26.7,224,26,224,25.2 M219.7,25.2L219.7,25.2c0-1.6,1.2-2.8,2.9-2.8c1.7,0,2.9,1.2,2.9,2.8v0c0,1.6-1.2,2.8-2.9,2.8
		C220.9,28,219.7,26.8,219.7,25.2"/>
	<path class="st3" d="M226.7,22.5h1.5v0.8c0.4-0.5,0.8-0.9,1.6-0.9c1.2,0,1.8,0.8,1.8,2v3.5h-1.5v-3c0-0.7-0.3-1.1-0.9-1.1
		c-0.6,0-1,0.4-1,1.1v3h-1.5V22.5z"/>
</g>
</svg>
