<?xml version="1.0" encoding="utf-8"?>
<!-- Generator: Adobe Illustrator 25.1.0, SVG Export Plug-In . SVG Version: 6.00 Build 0)  -->
<svg version="1.1" id="Layer_1" xmlns="http://www.w3.org/2000/svg" xmlns:xlink="http://www.w3.org/1999/xlink" x="0px" y="0px"
	 viewBox="0 0 387 216" style="enable-background:new 0 0 387 216;" xml:space="preserve">
<style type="text/css">
	.st0{fill:#1C3F94;}
</style>
<g>
	<path class="st0" d="M14.4,55.3c-3.8-2.3-6.7-5.6-8.6-9.8c-2-4.2-2.9-9.1-2.9-14.8c0-5.5,1.1-10.3,3.4-14.5
		c2.3-4.2,5.5-7.5,9.5-9.8c4-2.3,8.5-3.5,13.5-3.5c3.8,0,8.3,0.6,13.6,1.8l2.4,0.4l-0.7,13.2h-4.9L37.8,9c-0.7-0.6-1.9-1.1-3.6-1.5
		c-1.7-0.4-3.8-0.6-6.2-0.6c-3.1,0-5.9,0.9-8.4,2.7c-2.4,1.8-4.4,4.4-5.8,7.9c-1.4,3.5-2.1,7.6-2.1,12.5c0,4.6,0.6,8.8,1.8,12.6
		c1.2,3.8,3.1,6.8,5.6,9c2.5,2.2,5.6,3.3,9.2,3.3c2.6,0,4.6-0.2,6-0.7c1.4-0.4,2.6-1.1,3.6-1.9l3.1-7.2l4.6,0.6L43.9,56
		c-1,0-2.5,0.4-4.6,1c-1.8,0.5-3.5,1-5.1,1.3c-1.6,0.3-3.7,0.5-6.1,0.5C22.8,58.8,18.2,57.7,14.4,55.3z"/>
	<path class="st0" d="M59.3,54.6c-2.1-2.6-3.2-6.1-3.2-10.5c0-2.9,0.5-5.4,1.6-7.6c1.1-2.2,2.6-3.9,4.6-5.1c2-1.2,4.2-1.8,6.7-1.8
		c3.1,0,5.5,0.9,7.2,2.6c1.7,1.7,2.6,4.2,2.7,7.3c0,2-0.1,3.6-0.3,4.6H61.6c0.1,3.3,0.8,5.9,2.3,7.9c1.5,2,3.5,3,6.2,3
		c1.3,0,2.7-0.2,4.2-0.7c1.4-0.5,2.6-1.1,3.4-1.7l0.9,2.2c-1,1-2.4,1.9-4.3,2.6c-1.9,0.7-3.8,1.1-5.8,1.1
		C64.5,58.6,61.4,57.2,59.3,54.6z M73.5,41.5c0.1-0.7,0.1-1.4,0.1-2.1c0-2.2-0.5-3.9-1.4-5.1c-0.9-1.2-2.3-1.9-4.2-1.9
		c-1.9,0-3.5,0.7-4.6,2.1s-1.8,3.7-2,7H73.5z"/>
	<path class="st0" d="M90.1,34.2l-3.6-0.9v-2.7l7.1-0.9h0.1l1,0.9v2.1l0,1.2c1.2-1.1,2.8-2,4.7-2.9c2-0.9,3.8-1.3,5.6-1.3
		c2.1,0,3.7,0.4,4.8,1.2s1.9,2,2.4,3.7c0.5,1.6,0.7,3.9,0.7,6.6v13.9l3.5,0.3V58h-11.8v-2.4l3.1-0.4v-14c0-2-0.1-3.5-0.4-4.6
		c-0.3-1.1-0.8-1.9-1.5-2.5c-0.7-0.5-1.8-0.8-3.2-0.8c-1.2,0-2.5,0.3-3.8,0.9c-1.4,0.6-2.6,1.3-3.6,2.1v18.8l3.4,0.4V58H87v-2.4
		l3.1-0.4V34.2z"/>
	<path class="st0" d="M128.2,57.2c-0.9-0.9-1.4-2.3-1.4-4.4V33.7h-3.6v-2.2c0.2,0,0.6-0.1,1.4-0.3c0.8-0.2,1.3-0.4,1.5-0.5
		c0.5-0.3,0.9-0.9,1.2-1.8c0.3-0.6,0.6-1.6,0.9-3s0.6-2.2,0.6-2.5h2.9l0.1,7.2h8.3v3.3h-8.3V49c0,1.9,0.1,3.2,0.2,4
		c0.1,0.8,0.4,1.3,0.7,1.5c0.4,0.2,1,0.3,2,0.3c0.9,0,1.9-0.1,3-0.3c1.1-0.2,1.9-0.5,2.5-0.7l0.7,2.2c-0.8,0.6-2.1,1.2-3.9,1.7
		c-1.8,0.6-3.4,0.8-4.8,0.8C130.6,58.5,129.2,58.1,128.2,57.2z"/>
	<path class="st0" d="M151.1,54.6c-2.1-2.6-3.2-6.1-3.2-10.5c0-2.9,0.5-5.4,1.6-7.6c1.1-2.2,2.6-3.9,4.6-5.1c2-1.2,4.2-1.8,6.7-1.8
		c3.1,0,5.5,0.9,7.2,2.6c1.7,1.7,2.6,4.2,2.7,7.3c0,2-0.1,3.6-0.3,4.6h-17.1c0.1,3.3,0.8,5.9,2.3,7.9c1.5,2,3.5,3,6.2,3
		c1.3,0,2.7-0.2,4.2-0.7c1.4-0.5,2.6-1.1,3.4-1.7l0.9,2.2c-1,1-2.4,1.9-4.3,2.6c-1.9,0.7-3.8,1.1-5.8,1.1
		C156.2,58.6,153.2,57.2,151.1,54.6z M165.3,41.5c0.1-0.7,0.1-1.4,0.1-2.1c0-2.2-0.5-3.9-1.4-5.1c-0.9-1.2-2.3-1.9-4.2-1.9
		c-1.9,0-3.5,0.7-4.6,2.1s-1.8,3.7-2,7H165.3z"/>
	<path class="st0" d="M179,55.6l3.7-0.3v-21l-3.6-0.9v-2.7l6.9-0.9h0.1l1.1,0.9v0.9l-0.1,3.9h0.1c0.3-0.6,0.9-1.3,1.8-2.2
		c0.9-0.9,2-1.7,3.3-2.5c1.4-0.7,2.8-1.1,4.4-1.1c0.7,0,1.2,0.1,1.6,0.2v5.6c-0.2-0.2-0.6-0.3-1.1-0.5c-0.5-0.1-1.1-0.2-1.7-0.2
		c-2.8,0-5.3,0.8-7.7,2.5v17.9l6.3,0.4V58H179V55.6z"/>
	<path class="st0" d="M225.1,33.7h-4.7v-2.3l4.7-0.9v-2.3c0-2.1,0.5-3.9,1.6-5.7c1.1-1.7,2.5-3.1,4.2-4.1c1.7-1,3.6-1.5,5.5-1.5
		c1.1,0,2.1,0.1,2.9,0.4v5c-0.3-0.3-0.9-0.5-1.8-0.8c-0.9-0.2-1.8-0.4-2.9-0.4c-1.6,0-2.7,0.4-3.4,1.2c-0.7,0.8-1.1,2.2-1.1,4.2v3.9
		h6.9v3.2h-6.9v21.5l5.5,0.4V58h-14.9v-2.4l4.2-0.4V33.7z"/>
	<path class="st0" d="M246.7,36.4c1.2-2.2,2.8-3.9,4.8-5c2-1.1,4.2-1.7,6.4-1.7c4.2,0,7.3,1.3,9.4,4c2.1,2.7,3.2,6.1,3.2,10.4
		c0,3-0.6,5.6-1.8,7.8c-1.2,2.2-2.8,3.8-4.8,5c-2,1.1-4.2,1.7-6.4,1.7c-4.2,0-7.3-1.3-9.4-4c-2.1-2.7-3.2-6.1-3.2-10.4
		C244.8,41.2,245.4,38.6,246.7,36.4z M263,52.9c1.2-1.9,1.8-4.7,1.8-8.4c0-3.7-0.6-6.6-1.7-8.8c-1.1-2.2-2.9-3.2-5.4-3.2
		c-2.3,0-4.1,0.9-5.3,2.8c-1.2,1.9-1.9,4.7-1.9,8.4c0,3.7,0.6,6.6,1.7,8.8c1.2,2.2,3,3.2,5.4,3.2C260,55.7,261.7,54.8,263,52.9z"/>
	<path class="st0" d="M279,55.6l3.7-0.3v-21l-3.6-0.9v-2.7l6.9-0.9h0.1l1.1,0.9v0.9l-0.1,3.9h0.1c0.3-0.6,0.9-1.3,1.8-2.2
		c0.9-0.9,2-1.7,3.3-2.5c1.4-0.7,2.8-1.1,4.4-1.1c0.7,0,1.2,0.1,1.6,0.2v5.6c-0.2-0.2-0.6-0.3-1.1-0.5c-0.5-0.1-1.1-0.2-1.7-0.2
		c-2.8,0-5.3,0.8-7.7,2.5v17.9l6.3,0.4V58H279V55.6z"/>
	<path class="st0" d="M9.9,83.8l-6-0.9v-3.7h37.4l1,11.4h-4.2l-2.1-7.1l-18.2-0.4v20.7l12.3-0.2l1-6.1h4v16.9h-4l-1-6.3l-12.3-0.2
		v21.9l20.7-0.7l3.9-9.2l4.3,1.3l-2.1,12.8H3.8v-3.6l6.1-0.7V83.8z"/>
	<path class="st0" d="M66,120l-8.4-10.9l-2.8-0.6v-2.3h12.6v2.3l-3.5,0.6l4.5,6.4l1.4,2.1l1.3-2.1l4.7-6.4l-3.6-0.6v-2.3h10.5v2.3
		l-3,0.6l-8.3,10.3l8.8,11.5l2.9,0.4v2.4H70.5v-2.4l3.3-0.5l-4.5-6.7l-1.5-2.2l-1.3,2.2l-4.8,6.8l4.1,0.5v2.4H54.2v-2.4l3.3-0.5
		L66,120z"/>
	<path class="st0" d="M90.5,112.7c1.1-2.2,2.7-4,4.8-5.3c2.1-1.3,4.6-2,7.6-2c1.4,0,2.7,0.1,3.7,0.4c1,0.3,2.3,0.6,3.7,1.1l-0.2,7.7
		h-3.2l-1.1-5.1c-0.2-0.9-1.5-1.4-3.8-1.4c-2.3,0-4.2,0.9-5.5,2.8c-1.3,1.9-2,4.5-2,8c0,3.9,0.8,6.9,2.3,8.9c1.5,2,3.5,3.1,5.9,3.1
		c1.4,0,2.7-0.2,4-0.6c1.2-0.4,2.3-0.9,3.2-1.5l0.9,2c-0.9,0.9-2.2,1.8-4,2.5s-3.5,1.1-5.3,1.1c-2.7,0-5-0.6-6.9-1.8
		c-1.9-1.2-3.3-2.9-4.2-5c-0.9-2.1-1.4-4.6-1.4-7.3C88.9,117.4,89.4,114.9,90.5,112.7z"/>
	<path class="st0" d="M121.9,130.4c-2.1-2.6-3.2-6.1-3.2-10.5c0-2.9,0.5-5.4,1.6-7.6c1.1-2.2,2.6-3.9,4.6-5.1c2-1.2,4.2-1.8,6.7-1.8
		c3.1,0,5.5,0.9,7.2,2.6c1.7,1.7,2.6,4.2,2.7,7.3c0,2-0.1,3.6-0.3,4.6h-17.1c0.1,3.3,0.8,5.9,2.3,7.9c1.5,2,3.5,3,6.2,3
		c1.3,0,2.7-0.2,4.2-0.7c1.4-0.5,2.6-1.1,3.4-1.7l0.9,2.2c-1,1-2.4,1.9-4.3,2.6c-1.9,0.7-3.8,1.1-5.8,1.1
		C127.1,134.3,124,133,121.9,130.4z M136.1,117.3c0.1-0.7,0.1-1.4,0.1-2.1c0-2.2-0.5-3.9-1.4-5.1c-0.9-1.2-2.3-1.9-4.2-1.9
		c-1.9,0-3.5,0.7-4.6,2.1s-1.8,3.7-2,7H136.1z"/>
	<path class="st0" d="M153.3,96.7l-4-0.5V94l8-0.9h0.1l1.1,0.7v37.1l4.2,0.4v2.4h-13.4v-2.4l4-0.4V96.7z"/>
	<path class="st0" d="M173.7,96.7l-4-0.5V94l8-0.9h0.1l1.1,0.7v37.1l4.2,0.4v2.4h-13.4v-2.4l4-0.4V96.7z"/>
	<path class="st0" d="M193.5,130.4c-2.1-2.6-3.2-6.1-3.2-10.5c0-2.9,0.5-5.4,1.6-7.6c1.1-2.2,2.6-3.9,4.6-5.1s4.2-1.8,6.7-1.8
		c3.1,0,5.5,0.9,7.2,2.6c1.7,1.7,2.6,4.2,2.7,7.3c0,2-0.1,3.6-0.3,4.6h-17.1c0.1,3.3,0.8,5.9,2.3,7.9c1.5,2,3.5,3,6.2,3
		c1.3,0,2.7-0.2,4.2-0.7c1.4-0.5,2.6-1.1,3.4-1.7l0.9,2.2c-1,1-2.4,1.9-4.3,2.6c-1.9,0.7-3.8,1.1-5.8,1.1
		C198.7,134.3,195.6,133,193.5,130.4z M207.8,117.3c0.1-0.7,0.1-1.4,0.1-2.1c0-2.2-0.5-3.9-1.4-5.1s-2.3-1.9-4.2-1.9
		c-1.9,0-3.5,0.7-4.6,2.1c-1.1,1.4-1.8,3.7-2,7H207.8z"/>
	<path class="st0" d="M224.3,110l-3.6-0.9v-2.7l7.1-0.9h0.1l1,0.9v2.1l0,1.2c1.2-1.1,2.8-2,4.7-2.9c2-0.9,3.8-1.3,5.6-1.3
		c2.1,0,3.7,0.4,4.8,1.2s1.9,2,2.4,3.7s0.7,3.9,0.7,6.6v13.9l3.5,0.3v2.5H239v-2.4l3.1-0.4v-14c0-2-0.1-3.5-0.4-4.6
		c-0.3-1.1-0.8-1.9-1.5-2.5c-0.7-0.5-1.8-0.8-3.2-0.8c-1.2,0-2.5,0.3-3.8,0.9c-1.4,0.6-2.6,1.3-3.6,2.1v18.8l3.4,0.4v2.4h-11.7v-2.4
		l3.1-0.4V110z"/>
	<path class="st0" d="M259.2,112.7c1.1-2.2,2.7-4,4.8-5.3c2.1-1.3,4.6-2,7.6-2c1.4,0,2.7,0.1,3.7,0.4c1,0.3,2.3,0.6,3.7,1.1
		l-0.2,7.7h-3.2l-1.1-5.1c-0.2-0.9-1.5-1.4-3.8-1.4c-2.3,0-4.2,0.9-5.5,2.8c-1.3,1.9-2,4.5-2,8c0,3.9,0.8,6.9,2.3,8.9
		c1.5,2,3.5,3.1,5.9,3.1c1.4,0,2.7-0.2,4-0.6c1.2-0.4,2.3-0.9,3.2-1.5l0.9,2c-0.9,0.9-2.2,1.8-4,2.5s-3.5,1.1-5.3,1.1
		c-2.7,0-5-0.6-6.9-1.8c-1.9-1.2-3.3-2.9-4.2-5c-0.9-2.1-1.4-4.6-1.4-7.3C257.6,117.4,258.1,114.9,259.2,112.7z"/>
	<path class="st0" d="M290.6,130.4c-2.1-2.6-3.2-6.1-3.2-10.5c0-2.9,0.5-5.4,1.6-7.6s2.6-3.9,4.6-5.1c2-1.2,4.2-1.8,6.7-1.8
		c3.1,0,5.5,0.9,7.2,2.6c1.7,1.7,2.6,4.2,2.7,7.3c0,2-0.1,3.6-0.3,4.6h-17.1c0.1,3.3,0.8,5.9,2.3,7.9c1.5,2,3.5,3,6.2,3
		c1.3,0,2.7-0.2,4.2-0.7c1.4-0.5,2.6-1.1,3.4-1.7l0.9,2.2c-1,1-2.4,1.9-4.3,2.6s-3.8,1.1-5.8,1.1C295.7,134.3,292.7,133,290.6,130.4
		z M304.8,117.3c0.1-0.7,0.1-1.4,0.1-2.1c0-2.2-0.5-3.9-1.4-5.1c-0.9-1.2-2.3-1.9-4.2-1.9c-1.9,0-3.5,0.7-4.6,2.1s-1.8,3.7-2,7
		H304.8z"/>
	<path class="st0" d="M337.9,110l-3.8-0.9v-2.6l7.7-0.9h0.1l1.1,0.9v24.5l4,0.4v2.4h-13.2v-2.4l4-0.4V110z M337.5,100.3
		c-0.5-0.6-0.8-1.4-0.8-2.3c0-1.1,0.3-1.9,1-2.6c0.6-0.7,1.5-1,2.7-1c1.1,0,2,0.3,2.5,0.9c0.5,0.6,0.8,1.4,0.8,2.3
		c0,1.1-0.3,2-1,2.7c-0.6,0.7-1.5,1-2.7,1h0C338.8,101.2,338,100.9,337.5,100.3z"/>
	<path class="st0" d="M357.4,110l-3.6-0.9v-2.7l7.1-0.9h0.1l1,0.9v2.1l0,1.2c1.2-1.1,2.8-2,4.7-2.9c2-0.9,3.8-1.3,5.6-1.3
		c2.1,0,3.7,0.4,4.8,1.2s1.9,2,2.4,3.7s0.7,3.9,0.7,6.6v13.9l3.5,0.3v2.5H372v-2.4l3.1-0.4v-14c0-2-0.1-3.5-0.4-4.6
		c-0.3-1.1-0.8-1.9-1.5-2.5c-0.7-0.5-1.8-0.8-3.2-0.8c-1.2,0-2.5,0.3-3.8,0.9c-1.4,0.6-2.6,1.3-3.6,2.1v18.8l3.4,0.4v2.4h-11.7v-2.4
		l3.1-0.4V110z"/>
	<path class="st0" d="M9.9,159.5l-6-0.9V155h37.4l1,11.4h-4.2l-2.1-7.1l-18.2-0.4v20.7l12.3-0.2l1-6.1h4v16.9h-4l-1-6.3l-12.3-0.2
		v21.9l20.7-0.7l3.9-9.2l4.3,1.3l-2.1,12.8H3.8v-3.6l6.1-0.7V159.5z"/>
	<path class="st0" d="M61.4,208.6c-1.7-1-3-2.5-4-4.6c-1-2.1-1.5-4.6-1.5-7.6c0-2.8,0.6-5.4,1.7-7.7c1.2-2.3,2.8-4.2,5-5.5
		c2.2-1.3,4.7-2,7.7-2c1.7,0,3.2,0.2,4.6,0.5v-9.3l-5.1-0.6v-2.1l8.9-0.9H79l1.1,0.8V207H83v2.3c-1.1,0.2-2,0.4-2.8,0.5
		c-0.8,0.1-1.6,0.2-2.5,0.2c-0.9,0-1.5-0.1-1.8-0.4c-0.4-0.3-0.5-0.9-0.5-1.9v-1.6c-0.9,1.1-2.1,2.1-3.7,2.8
		c-1.5,0.8-3.1,1.1-4.9,1.1C64.8,210.1,63,209.6,61.4,208.6z M72.4,205.7c1.1-0.6,2-1.2,2.5-2v-18.2c-0.3-0.4-0.9-0.8-1.9-1.1
		c-1-0.3-2-0.5-3.1-0.5c-2.6,0-4.6,1-6.2,3c-1.5,2-2.3,5-2.3,9.1c0,3.6,0.7,6.2,2,8c1.4,1.7,3.1,2.6,5.3,2.6
		C70.1,206.5,71.3,206.3,72.4,205.7z"/>
	<path class="st0" d="M111.4,209.4c-0.4-0.4-0.7-1-0.7-1.8v-1.7c-1.1,1.1-2.5,2.1-4.1,2.9s-3.3,1.2-4.9,1.2c-3.1,0-5.3-0.8-6.6-2.5
		c-1.3-1.7-1.9-4.4-1.9-8.2V185l-2.8-0.8V182l7-0.6h0l0.9,0.6V199c0,1.9,0.1,3.4,0.4,4.5c0.3,1.1,0.8,1.9,1.5,2.4
		c0.7,0.5,1.7,0.8,3.1,0.8c1.3,0,2.6-0.3,3.7-0.8c1.2-0.6,2.2-1.2,3-2V185l-3.6-0.8V182l7.6-0.6h0l1.1,0.6V207h3l0,2.2
		c-0.9,0.2-1.7,0.4-2.4,0.5c-0.7,0.1-1.5,0.2-2.4,0.2C112.5,210,111.8,209.8,111.4,209.4z"/>
	<path class="st0" d="M127.1,188.4c1.1-2.2,2.7-4,4.8-5.3c2.1-1.3,4.6-2,7.6-2c1.4,0,2.7,0.1,3.7,0.4c1,0.3,2.3,0.6,3.7,1.1
		l-0.2,7.7h-3.2l-1.1-5.1c-0.2-0.9-1.5-1.4-3.8-1.4c-2.3,0-4.2,0.9-5.5,2.8c-1.3,1.9-2,4.5-2,8c0,3.9,0.8,6.9,2.3,8.9
		c1.5,2,3.5,3.1,5.9,3.1c1.4,0,2.7-0.2,4-0.6c1.2-0.4,2.3-0.9,3.2-1.5l0.9,2c-0.9,0.9-2.2,1.8-4,2.5c-1.7,0.7-3.5,1.1-5.3,1.1
		c-2.7,0-5-0.6-6.9-1.8c-1.9-1.2-3.3-2.9-4.2-5c-0.9-2.1-1.4-4.6-1.4-7.3C125.4,193.2,126,190.7,127.1,188.4z"/>
	<path class="st0" d="M160,195.2c3.1-1.5,7.1-2.3,11.8-2.4v-1.4c0-1.6-0.2-2.8-0.5-3.7c-0.3-0.9-0.9-1.5-1.7-2
		c-0.8-0.4-2-0.6-3.5-0.6c-1.7,0-3.2,0.2-4.5,0.7c-1.3,0.5-2.7,1.1-4,1.8l-1.2-2.6c0.4-0.4,1.2-0.8,2.4-1.4c1.2-0.6,2.5-1.1,4-1.6
		c1.5-0.5,3-0.7,4.6-0.7c2.4,0,4.2,0.3,5.6,1c1.4,0.6,2.4,1.7,3,3.1c0.6,1.4,0.9,3.3,0.9,5.7v16h2.9v2.2c-0.7,0.2-1.5,0.3-2.5,0.5
		c-1,0.2-1.9,0.2-2.7,0.2c-0.9,0-1.6-0.1-1.9-0.4c-0.3-0.3-0.5-0.9-0.5-1.9v-1.6c-1,1-2.2,1.9-3.7,2.7s-3.1,1.2-4.9,1.2
		c-2.4,0-4.4-0.7-5.9-2.1c-1.6-1.4-2.4-3.4-2.4-5.9C155.4,199,156.9,196.7,160,195.2z M168.8,205.9c1.1-0.5,2.2-1.2,3.1-1.9v-8.6
		c-3.6,0-6.3,0.6-8.2,1.7c-1.8,1.1-2.8,2.6-2.8,4.4c0,1.8,0.4,3.1,1.3,4c0.9,0.8,2.1,1.3,3.6,1.3
		C166.7,206.7,167.7,206.4,168.8,205.9z"/>
	<path class="st0" d="M191.4,208.7c-0.9-0.9-1.4-2.3-1.4-4.4v-19.1h-3.6V183c0.2,0,0.6-0.1,1.4-0.3c0.8-0.2,1.3-0.4,1.5-0.5
		c0.5-0.3,0.9-0.9,1.2-1.8c0.3-0.6,0.6-1.6,0.9-3s0.6-2.2,0.6-2.5h2.9l0.1,7.2h8.3v3.3h-8.3v15.3c0,1.9,0.1,3.2,0.2,4
		c0.1,0.8,0.4,1.3,0.7,1.5c0.4,0.2,1,0.3,2,0.3c0.9,0,1.9-0.1,3-0.3c1.1-0.2,1.9-0.5,2.5-0.7l0.7,2.2c-0.8,0.6-2.1,1.2-3.9,1.7
		c-1.8,0.6-3.4,0.8-4.8,0.8C193.7,210,192.3,209.6,191.4,208.7z"/>
	<path class="st0" d="M215,185.8l-3.8-0.9v-2.6l7.7-0.9h0.1l1.1,0.9v24.5l4,0.4v2.4H211v-2.4l4-0.4V185.8z M214.6,176.1
		c-0.5-0.6-0.8-1.4-0.8-2.3c0-1.1,0.3-1.9,1-2.6c0.6-0.7,1.5-1,2.7-1c1.1,0,2,0.3,2.5,0.9c0.5,0.6,0.8,1.4,0.8,2.3
		c0,1.1-0.3,2-1,2.7c-0.6,0.7-1.5,1-2.7,1h0C216,177,215.2,176.7,214.6,176.1z"/>
	<path class="st0" d="M233.4,187.9c1.2-2.2,2.8-3.9,4.8-5c2-1.1,4.2-1.7,6.4-1.7c4.2,0,7.3,1.3,9.4,4c2.1,2.7,3.2,6.1,3.2,10.4
		c0,3-0.6,5.6-1.8,7.8c-1.2,2.2-2.8,3.8-4.8,5c-2,1.1-4.2,1.7-6.4,1.7c-4.2,0-7.3-1.3-9.4-4c-2.1-2.7-3.2-6.1-3.2-10.4
		C231.5,192.7,232.2,190.1,233.4,187.9z M249.7,204.4c1.2-1.9,1.8-4.7,1.8-8.4c0-3.7-0.6-6.6-1.7-8.8c-1.1-2.2-2.9-3.2-5.4-3.2
		c-2.3,0-4.1,0.9-5.3,2.8c-1.2,1.9-1.9,4.7-1.9,8.4c0,3.7,0.6,6.6,1.7,8.8c1.2,2.2,3,3.2,5.4,3.2
		C246.7,207.2,248.5,206.3,249.7,204.4z"/>
	<path class="st0" d="M268.6,185.8l-3.6-0.9v-2.7l7.1-0.9h0.1l1,0.9v2.1l0,1.2c1.2-1.1,2.8-2,4.7-2.9c2-0.9,3.8-1.3,5.6-1.3
		c2.1,0,3.7,0.4,4.8,1.2s1.9,2,2.4,3.7s0.7,3.9,0.7,6.6v13.9l3.5,0.3v2.5h-11.8v-2.4l3.1-0.4v-14c0-2-0.1-3.5-0.4-4.6
		c-0.3-1.1-0.8-1.9-1.5-2.5c-0.7-0.5-1.8-0.8-3.2-0.8c-1.2,0-2.5,0.3-3.8,0.9c-1.4,0.6-2.6,1.3-3.6,2.1v18.8l3.4,0.4v2.4h-11.7v-2.4
		l3.1-0.4V185.8z"/>
</g>
</svg>
